<?xml version="1.0" encoding="utf-8"?>
<!-- Generator: Adobe Illustrator 24.0.2, SVG Export Plug-In . SVG Version: 6.00 Build 0)  -->
<svg version="1.1" id="Layer_1" xmlns="http://www.w3.org/2000/svg" xmlns:xlink="http://www.w3.org/1999/xlink" x="0px" y="0px"
	 viewBox="0 0 224.9 231.98" style="enable-background:new 0 0 224.9 231.98;" xml:space="preserve">
<path fill="#707171"  d="M224.82,131.39c-1.24-4.26-3.44-7.14-6.73-8.81c-0.38-0.19-0.76-0.36-1.14-0.52c0.9-2.45,0.87-4.99,0.85-7.31
	c-0.04-4.92-0.03-9.94-0.02-14.37c0.01-6.03-3.83-11.06-9.57-12.53c-7.53-1.93-15.23-3.86-22.87-5.73
	c-0.65-0.16-0.73-0.26-0.92-0.79c-0.74-2.09-1.67-4.11-2.56-6.06l-0.35-0.77c-0.03-0.08-0.05-0.13-0.07-0.16
	c0.01-0.02,0.02-0.04,0.03-0.06c2.07-3.41,4.12-6.83,6.18-10.24c2.02-3.37,4.05-6.74,6.09-10.1c3.21-5.28,2.59-11.48-1.58-15.79
	c-3.93-4.07-8.1-8.23-12.74-12.72c-4.05-3.92-10.04-4.61-14.91-1.74c-6.32,3.73-13.16,7.82-20.9,12.5c-0.12,0.07-0.19,0.1-0.2,0.11
	c-0.03-0.01-0.08-0.02-0.15-0.06c-2.33-1.05-4.83-2.1-7.43-3.12c-0.01,0-0.02-0.01-0.03-0.01c-0.01-0.02-0.01-0.05-0.02-0.08
	c-0.6-2.46-1.23-4.92-1.86-7.37c-1.14-4.44-2.31-9.04-3.31-13.57c-1.46-6.64-4.95-10.58-10.66-12.05L119.7,0h-21.6l-0.47,0.28
	c-0.02,0.01-0.04,0.02-0.06,0.04c-5.15,1.14-8.45,4.45-9.8,9.85c-0.75,3.01-1.51,6.02-2.28,9.03c-1.17,4.62-2.34,9.24-3.48,13.87
	C82,33.07,82,33.08,82,33.1c-0.04,0.02-0.11,0.05-0.2,0.09c-2.44,0.97-4.82,1.94-7.18,3.06c-0.15,0.07-0.22,0.09-0.22,0.09
	c-0.02-0.01-0.12-0.03-0.34-0.17c-7.14-4.33-13.77-8.32-20.26-12.17c-5.52-3.28-11.53-2.52-16.07,2.04
	c-3.27,3.28-6.54,6.54-9.81,9.81l-1.56,1.56c-4.92,4.92-5.7,10.62-2.24,16.5c4.11,7,8.4,14.07,12.09,20.15
	c0.11,0.17,0.13,0.26,0.14,0.26c0,0.02-0.02,0.11-0.11,0.31c-0.63,1.35-1.19,2.73-1.73,4.06c-0.43,1.06-0.86,2.12-1.32,3.15
	c-0.02,0.04-0.09,0.11-0.13,0.15c-1.12,0.35-2.27,0.62-3.48,0.91c-0.52,0.12-1.04,0.25-1.56,0.38c-1.87,0.47-3.74,0.93-5.61,1.39
	c-4.45,1.1-9.04,2.23-13.55,3.46c-4.99,1.36-8.77,6.34-8.8,11.6c-0.04,6.29-0.03,12.02,0,17.54c0.04,6.43,3.66,11.03,9.91,12.63
	c7.17,1.84,14.77,3.75,22.58,5.67c0.68,0.17,0.71,0.26,0.86,0.67c0.8,2.27,1.79,4.46,2.75,6.58l0.17,0.38
	c0.03,0.07,0.05,0.12,0.06,0.15c-0.01,0.02-0.02,0.04-0.04,0.07c-1.82,3-3.62,6-5.43,9.01c-2.25,3.74-4.5,7.49-6.77,11.21
	c-3.33,5.44-2.69,11.58,1.66,16.01c3.31,3.38,7.24,7.37,11.26,11.33c5.67,5.59,11.02,6.21,17.9,2.08
	c6.56-3.94,12.98-7.79,19.34-11.53c0.08-0.01,0.2-0.01,0.25,0.01c0.94,0.35,1.85,0.74,2.82,1.16c1.32,0.56,2.68,1.15,4.11,1.62
	c0.46,0.15,0.55,0.18,0.75,1.01l0.17,0.68c1.81,7.39,3.69,15.03,5.7,22.51c1.5,5.57,6.33,9.18,12.31,9.19l6.5,0
	c0,0.57,0,1.14,0.01,1.7c0.1,4.71,2.28,8.45,6.31,10.82c0.9,0.53,1.82,0.86,2.71,1.19c0.35,0.13,0.71,0.26,1.05,0.4l0.36,0.15h96.88
	l0.41-0.19c0.52-0.25,1.06-0.48,1.6-0.71c1.32-0.56,2.68-1.15,3.94-2c2.83-1.92,3.95-4.98,4.66-7.72l0.06-0.25v-89.45L224.82,131.39
	z M213.78,146.55l-0.01,71.66c0,2.34-0.29,2.63-2.59,2.63l-90.59,0.02c-1.05,0-1.77-0.16-2.08-0.48c-0.31-0.31-0.48-1.04-0.48-2.09
	l0.01-71.74H213.78z M33.82,169.28c0.97-1.61,1.93-3.23,2.89-4.84c2.94-4.94,5.99-10.04,9.06-15c2.34-3.77,2.48-7.49,0.45-11.37
	c-0.95-1.8-1.67-3.72-2.44-5.75l-0.42-1.11c-1.24-3.23-3.49-5.27-6.71-6.06c-5.32-1.31-10.63-2.66-15.94-4
	c-2.63-0.67-5.26-1.33-7.89-1.99c-1.38-0.35-1.66-0.7-1.66-2.09c0-2.75,0-5.5,0-8.25l0-7.71c0-1.87,0.22-2.16,1.99-2.61l1.26-0.32
	c7.38-1.86,14.76-3.72,22.15-5.55c3.3-0.82,5.62-2.93,6.9-6.27c0.89-2.34,1.95-4.88,3.24-7.78c1.5-3.39,1.33-6.51-0.54-9.56
	c-3.3-5.37-6.58-10.89-9.76-16.22l-2.91-4.87c-0.51-0.85-0.44-1.38,0.28-2.1c3.91-3.94,7.82-7.88,11.75-11.81
	c1.07-1.06,1.51-1.12,2.79-0.35l5.45,3.28c5.21,3.14,10.6,6.38,15.93,9.54c2.68,1.58,5.68,1.65,8.92,0.21
	c2.52-1.13,5.13-2.29,7.75-3.27c3.35-1.25,5.47-3.56,6.3-6.87c1.67-6.67,3.35-13.34,5.04-20.01l0.9-3.55
	c0.43-1.68,0.63-1.84,2.41-1.84c5.32-0.01,10.64-0.01,15.95,0c1.66,0,1.87,0.17,2.29,1.81l0.82,3.23
	c1.68,6.61,3.42,13.45,5.05,20.19c0.83,3.44,2.94,5.76,6.44,7.09c2.01,0.77,4.04,1.65,6.01,2.5l1.78,0.77
	c3.28,1.41,6.45,1.21,9.41-0.6c5.26-3.22,10.65-6.44,15.86-9.55l5.1-3.05c0.97-0.58,1.56-0.51,2.35,0.28
	c4.04,4.01,8.06,8.04,12.07,12.08c0.61,0.61,0.67,1.21,0.2,1.99l-2.42,4.06c-3.36,5.64-6.83,11.47-10.31,17.16
	c-1.76,2.89-1.98,5.96-0.64,9.14l0.72,1.7c0.96,2.26,1.91,4.52,2.84,6.8c1.26,3.1,3.46,5.07,6.54,5.84
	c7.95,1.99,15.9,3.98,23.85,5.98c1.43,0.36,1.74,0.75,1.74,2.23c0.01,5.55,0.01,11.11,0,16.66c0,1.26-0.83,1.48-1.1,1.55
	c-4.24,1.11-8.61,2.25-13.13,2.18c-8.04-0.14-16.22-0.12-24.12-0.09c-2.98,0.01-5.96,0.02-8.95,0.02c0.04-0.23,0.08-0.46,0.12-0.69
	c0.38-2.17,0.78-4.41,1.02-6.66c1.05-9.77-0.66-19.15-5.09-27.9c-7.1-14.03-18.41-23.19-33.6-27.23c-3.26-0.87-5.12,0.46-6.11,1.73
	c-1.4,1.8-1.64,3.91-0.69,5.95c0.96,2.07,2.78,2.76,4.07,3.1c8.77,2.33,15.96,6.91,21.35,13.63c6.95,8.65,9.97,18.47,8.98,29.17
	c-0.18,1.94-0.61,3.86-1.07,5.9c-0.22,1-0.45,2.01-0.64,3.02c-7.12-0.04-14.36-0.04-21.36-0.03l-6.19,0
	c-7.78,0-13.22,5.4-13.23,13.12c-0.02,17.78-0.02,35.57-0.02,53.35l0,19.04c-0.24,0-0.49,0-0.73,0c-2.1,0.01-4.09,0.02-6.09-0.02
	c-0.89-0.02-1.28-0.81-1.45-1.48l-0.8-3.16c-1.74-6.93-3.49-13.85-5.19-20.79c-0.79-3.2-2.76-5.45-5.86-6.69l-1.82-0.72
	c-2.11-0.83-4.29-1.7-6.35-2.67c-1.47-0.69-2.93-1.04-4.37-1.04c-1.73,0-3.43,0.5-5.08,1.5c-5.4,3.25-10.8,6.49-16.21,9.73
	l-3.91,2.35c-0.49,0.3-0.95,0.58-1.39,0.77c-0.8,0.34-1.22,0.16-1.61-0.23l-0.39-0.39c-3.91-3.88-7.96-7.88-11.89-11.86
	C33.2,171.36,32.81,170.96,33.82,169.28z M118.02,135.3c-0.01-0.67-0.01-1.3,0.06-1.89c0.13-1.07,1.54-1.15,1.97-1.15
	c7.4-0.01,14.81-0.02,22.21-0.02l68.78,0c2.42,0,2.7,0.28,2.72,2.7c0,0.12,0,0.24,0,0.36H118.02z M107.24,78.4
	c0.51-0.04,1.02-0.09,1.54-0.14l0.11-0.01l0.11,0c8.43,0.06,16.56,3.68,22.32,9.92c5.74,6.23,8.67,14.59,8.05,22.96
	c-0.16,2.19-1.23,4.01-2.93,5c-1.56,0.91-3.43,0.96-5.15,0.15c-1.5-0.71-3.25-2.28-3.06-5.69c0.23-4.05-0.56-7.69-2.41-11.14
	c-2.88-5.37-8.36-9.01-14.67-9.75c-6.29-0.74-12.44,1.53-16.47,6.06c-4.12,4.63-5.89,10.63-4.88,16.45
	c1.02,5.81,4.71,10.84,10.14,13.8c2.56,1.4,3.63,3.38,3.26,6.06c-0.33,2.36-2.23,4.27-4.54,4.55c-0.23,0.03-0.48,0.04-0.72,0.04
	c-1.05,0-2.17-0.25-3.11-0.71c-10.85-5.31-17.69-18.13-16.26-30.49c1.55-13.41,11.88-24.36,25.12-26.64
	C104.89,78.6,106.09,78.5,107.24,78.4z M115.34,102.42c1.75,1.77,2.71,4.15,2.69,6.68c-0.03,4.83-4.22,8.89-9.16,8.89
	c-0.02,0-0.03,0-0.05,0c-2.44-0.01-4.73-0.98-6.44-2.72c-1.71-1.74-2.64-4.04-2.61-6.49c0.05-5,4.16-9.05,9.15-9.05
	c0.02,0,0.03,0,0.05,0C111.38,99.74,113.64,100.7,115.34,102.42z M89.02,65.83c-0.5-2.77,1.08-5.48,3.61-6.18
	c3.39-0.93,6.48-1.64,9.44-2.15c1.37-0.24,2.74,0.08,3.86,0.88c1.21,0.87,2.04,2.25,2.28,3.79c0.45,2.86-1.44,5.52-4.39,6.21
	l-3.09,0.72c-1.64,0.38-3.28,0.76-4.92,1.14c-0.29,0.07-0.59,0.1-0.79,0.13l-0.33,0.02C91.83,70.39,89.5,68.51,89.02,65.83z
	 M57.02,108.83c0.03-3.15,2.44-5.49,5.74-5.56c0.8-0.02,1.61-0.01,2.41-0.01l0.23,0l1.82-0.01c0.78-0.01,1.55-0.01,2.32,0.01
	c3.27,0.09,5.68,2.43,5.73,5.56c0.05,3.14-2.29,5.49-5.58,5.59c-1.25,0.04-2.47,0.06-3.66,0.06c-1.17,0-2.32-0.02-3.43-0.05
	C59.34,114.31,56.99,111.96,57.02,108.83z M60.82,89.47c0.58-2.47,2.92-4.23,5.69-4.29l0.33-0.01l0.31,0.1
	c0.1,0.03,0.22,0.06,0.36,0.1c0.46,0.13,1.1,0.31,1.74,0.58c1.73,0.72,3.58,1.52,5.64,2.44c3.02,1.35,4.28,4.38,3.06,7.35
	c-0.86,2.1-2.89,3.36-5.09,3.36c-0.7,0-1.41-0.13-2.11-0.39c-2.22-0.84-4.48-1.8-6.91-2.93C61.48,94.7,60.21,92.04,60.82,89.47z
	 M98.72,147.03c-0.77,1.96-1.67,4.07-2.81,6.63c-1,2.24-2.84,3.38-5.46,3.38c-0.07,0-0.14,0-0.21,0c-1.56-0.02-3.07-0.89-4.04-2.32
	c-1.05-1.56-1.29-3.5-0.63-5.2c0.8-2.06,1.74-4.27,2.88-6.78c1.31-2.87,4.54-4.16,7.37-2.93C98.58,141,99.85,144.18,98.72,147.03z
	 M75.08,128.47c-2.71,1.21-5.11,2.2-7.34,3.01c-0.62,0.23-1.24,0.33-1.86,0.33c-2.07,0-4.01-1.23-4.99-3.33
	c-1.25-2.67-0.25-5.8,2.22-6.98c1.99-0.95,4.04-1.74,6.03-2.52c0.74-0.29,1.47-0.57,2.2-0.86c0.56-0.22,1.06-0.18,1.3-0.15l0.02,0
	c2.58,0.02,4.78,1.83,5.37,4.4C78.59,124.81,77.29,127.48,75.08,128.47z M72.1,79.92c-2.09-2.21-2.01-5.63,0.19-7.78
	c2.12-2.08,5.48-2.12,7.65-0.1c1.75,1.64,3.51,3.39,5.22,5.22c1.69,1.8,2.07,4.09,1.04,6.28c-0.95,2.04-2.71,3.09-5.38,3.19
	l-0.5,0.02l-0.44-0.21c-0.07-0.03-0.16-0.06-0.25-0.1c-0.58-0.21-1.45-0.54-2.19-1.21C75.82,83.75,74.12,82.06,72.1,79.92z
	 M85.36,140.21c-1.68,1.77-3.49,3.66-5.42,5.42c-0.72,0.66-1.58,0.99-2.27,1.26c-0.23,0.09-0.46,0.18-0.68,0.28l-0.56,0.27
	l-0.62-0.1c-2.15-0.35-3.68-1.39-4.57-3.12c-1.08-2.1-0.93-4.25,0.41-5.75c2.22-2.5,4.29-4.6,6.32-6.42
	c0.88-0.79,2.09-1.18,3.39-1.09c1.56,0.1,3.09,0.86,4.09,2.02C87.22,135.04,87.18,138.29,85.36,140.21z M159.18,186.87
	c1.03,1.01,1.61,2.37,1.62,3.81c0.01,1.52-0.6,2.99-1.73,4.13c-4.77,4.83-9.52,9.57-14.12,14.08c-1.18,1.16-2.57,1.74-3.97,1.74
	c-1.48,0-2.97-0.64-4.24-1.93c-2.17-2.18-4.35-4.36-6.53-6.52c-1.24-1.23-1.93-2.77-1.93-4.33c0-1.45,0.59-2.84,1.67-3.91
	c2.22-2.21,5.66-2.1,8.01,0.25c0.99,0.99,1.95,2.01,2.95,3.06l6.99-7.04c1.04-1.06,2.09-2.11,3.14-3.15
	C153.44,184.68,156.87,184.61,159.18,186.87z M129.92,173.36c-2.23-2.32-2.24-5.72-0.03-7.91c2.23-2.21,5.68-2.14,8.03,0.17
	c1.02,1,1.96,2.01,2.96,3.07l9.12-9.12c0.46-0.46,0.92-0.92,1.41-1.36c2.32-2.06,5.65-1.99,7.75,0.18c2.22,2.3,2.23,5.49,0.01,7.76
	c-2.92,2.99-5.92,5.99-8.82,8.89l-3.99,4.01c-0.48,0.5-0.98,1.01-1.53,1.5c-1.19,1.07-2.56,1.61-3.91,1.61
	c-1.35,0-2.69-0.54-3.81-1.61C134.58,178.11,132.16,175.69,129.92,173.36z M163.9,169.52c-0.02-1.53,0.53-2.94,1.54-3.96
	c1.07-1.09,2.6-1.69,4.31-1.69c9.31-0.02,18.62-0.02,27.92-0.02c1.68,0,3.2,0.6,4.27,1.68c1.03,1.03,1.59,2.45,1.58,3.99
	c-0.01,3.11-2.54,5.46-5.86,5.47c-1.98,0.01-3.96,0.01-5.93,0.01c-1.36,0-2.73,0-4.09,0l-6.09-0.01l-2.02,0
	c-3.27,0-6.53,0.01-9.8-0.01C166.34,174.96,163.94,172.72,163.9,169.52z M189.27,197.79c0.03,1.52-0.52,2.92-1.52,3.96
	c-1.05,1.08-2.52,1.69-4.15,1.71c-0.93,0.01-1.87,0.02-2.8,0.02c-0.75,0-1.5,0-2.24-0.01l-2.1-0.01l-2.1,0
	c-1.59,0-3.17,0.01-4.76-0.01c-1.64-0.02-3.11-0.63-4.16-1.71c-1-1.04-1.54-2.44-1.52-3.96c0.05-3.13,2.44-5.42,5.69-5.43
	c4.48-0.02,9.18-0.03,13.97,0C186.82,192.38,189.22,194.67,189.27,197.79z"/>
</svg>
