<?xml version="1.0" encoding="utf-8"?>
<!-- Generator: Adobe Illustrator 24.0.2, SVG Export Plug-In . SVG Version: 6.00 Build 0)  -->
<svg version="1.1" id="Layer_1" xmlns="http://www.w3.org/2000/svg" xmlns:xlink="http://www.w3.org/1999/xlink" x="0px" y="0px"
	 viewBox="0 0 218.95 175.29" style="enable-background:new 0 0 218.95 175.29;" xml:space="preserve">
<path fill="#707171" d="M0,170.56C0,115.27,0,59.99,0,4.7C1.14,1.2,3.61-0.23,7.22,0.03c1.18,0.08,2.37-0.01,3.55-0.01
	c20.74,0.01,41.48,0.02,62.22,0.02c23.06,0,46.13-0.02,69.19-0.02c12.44,0,24.89,0.02,37.33,0.02c11.08,0,22.15,0.01,33.23-0.01
	c1.62,0,3.14,0.32,4.25,1.51c0.79,0.84,1.32,1.92,1.96,2.89c0,55.47,0,110.93,0,166.4c-1.45,3.55-4.19,4.5-7.86,4.45
	c-11.99-0.15-23.99-0.07-35.98-0.07c-28.73,0-57.47,0.01-86.2,0.02c-27.27,0-54.55,0-81.82,0C3,175.23,1.59,174.3,0,170.56z
	 M207.89,164.19c0-40.17,0-80.21,0-120.23c-65.7,0-131.29,0-196.83,0c0,40.13,0,80.15,0,120.23
	C76.69,164.19,142.21,164.19,207.89,164.19z M207.94,11.11c-65.74,0-131.32,0-196.88,0c0,7.29,0,14.47,0,21.66
	c65.69,0,131.27,0,196.88,0C207.94,25.49,207.94,18.35,207.94,11.11z M68.88,70.52c-1.9-0.75-3.59-0.17-5.45,1.71
	c-6.03,6.08-12.1,12.12-18.15,18.19c-3.73,3.74-7.52,7.43-11.16,11.26c-2.15,2.26-1.94,5.09,0.26,7.32
	c1.22,1.23,2.45,2.45,3.67,3.67c6.61,6.6,13.21,13.21,19.82,19.81c2.13,2.13,4.23,4.28,6.42,6.34c1.92,1.8,4.19,1.73,6.09-0.05
	c0.53-0.5,1.07-0.99,1.57-1.52c1.77-1.89,1.78-4.41-0.03-6.24c-3.43-3.47-6.88-6.91-10.33-10.35c-4.9-4.89-9.8-9.79-14.72-14.67
	c-0.54-0.54-0.74-0.94-0.07-1.56c1.11-1.02,2.12-2.13,3.19-3.19c7.25-7.25,14.53-14.47,21.73-21.77c0.77-0.78,1.12-1.99,1.67-3
	C73.09,74.17,71.07,71.39,68.88,70.52z M163.57,114.76c-5.39,5.37-10.76,10.76-16.14,16.14c-1.19,1.18-1.83,2.65-1.28,4.22
	c0.39,1.1,1.23,2.1,2.05,2.97c2.56,2.73,4.87,2.71,7.48,0.08c3.15-3.17,6.3-6.33,9.46-9.49c6.51-6.51,13.04-13,19.53-19.53
	c2.58-2.6,2.58-5.39,0.1-7.92c-2.78-2.83-5.59-5.62-8.39-8.43c-7.05-7.06-14.11-14.13-21.17-21.19c-1.18-1.18-2.67-1.91-4.21-1.2
	c-1.39,0.64-2.67,1.69-3.74,2.81c-1.66,1.74-1.53,4.48,0.18,6.19c5.65,5.69,11.33,11.35,17.01,17.01c2.87,2.85,5.77,5.67,8.84,8.69
	C169.9,108.48,166.72,111.61,163.57,114.76z M94.69,142.08c4.88-8.54,9.79-17.07,14.67-25.61c7.87-13.75,15.64-27.56,23.63-41.25
	c2.67-4.57,1.64-7.05-2.67-9.01c-2.38-1.08-4.67-0.48-5.98,1.81c-4.84,8.46-9.65,16.93-14.49,25.39
	c-5.51,9.65-11.04,19.28-16.55,28.93c-2.73,4.78-5.44,9.58-8.18,14.36c-0.86,1.49-1.15,3.06-0.18,4.53
	c1.32,2.02,3.42,2.86,5.18,3.36C92.51,144.61,93.78,143.67,94.69,142.08z M42.7,21.98c0.01-2.4-1.91-4.36-4.3-4.4
	c-2.5-0.04-4.45,1.86-4.47,4.36c-0.02,2.43,1.85,4.35,4.28,4.4C40.7,26.37,42.69,24.45,42.7,21.98z M59.11,21.9
	c-0.02-2.4-1.96-4.33-4.36-4.33c-2.51,0-4.42,1.93-4.39,4.43c0.02,2.44,1.92,4.31,4.36,4.32C57.2,26.33,59.13,24.4,59.11,21.9z
	 M22.03,17.57c-2.51-0.07-4.48,1.8-4.51,4.3c-0.04,2.47,1.77,4.38,4.22,4.45c2.5,0.08,4.49-1.81,4.53-4.29
	C26.31,19.6,24.44,17.64,22.03,17.57z"/>
</svg>
