<?xml version="1.0" encoding="utf-8"?>
<!-- Generator: Adobe Illustrator 24.0.2, SVG Export Plug-In . SVG Version: 6.00 Build 0)  -->
<svg version="1.1" id="Layer_1" xmlns="http://www.w3.org/2000/svg" xmlns:xlink="http://www.w3.org/1999/xlink" x="0px" y="0px"
	 viewBox="0 0 253.63 265.4" style="enable-background:new 0 0 253.63 265.4;" xml:space="preserve">
<path fill="#707171" d="M247.76,67.19c1.03-1.35,1.35-3.19,0.9-5.18c-0.35-1.54-0.7-3.07-1.06-4.6l-2.03-8.74c-1.46-6.27-2.91-12.55-4.36-18.83
	c-0.56-2.44-1.79-3.97-3.76-4.69c-1.5-0.55-3.05-0.49-4.38,0.17c-1.48,0.74-2.6,2.17-3.18,4.05c-3.26,10.7-6.5,21.4-9.74,32.1
	c-0.66,2.19-0.43,4.19,0.65,5.65c0.01,0.02,0.03,0.04,0.04,0.06c-0.18,0-0.36,0-0.55,0c-3.27,0.03-5.82,2.53-5.8,5.69
	c0.03,3.16,2.53,5.58,5.83,5.64c0.72,0.01,1.45,0.01,2.17,0.01l5.88,0l0,6.03c0,6.34-0.01,12.67,0.02,19.01
	c0,0.7-0.15,1.14-0.6,1.66c-11.24,13.25-22.46,26.51-33.67,39.78l-9.42,11.14V53.78l0.86,0c1.77,0,3.53,0.01,5.28-0.01
	c1.85-0.02,3.5-0.66,4.64-1.83c1.01-1.03,1.56-2.43,1.55-3.92c-0.04-3.14-2.48-5.47-5.85-5.63c0.02-0.03,0.04-0.06,0.07-0.09
	c0.97-1.33,1.29-3.01,0.89-4.73c-2.51-10.94-5.05-21.88-7.6-32.82c-0.69-2.94-2.67-4.67-5.46-4.76c-2.68-0.09-4.82,1.53-5.67,4.32
	c-3.18,10.4-6.56,21.49-9.94,32.74c-0.57,1.91-0.32,3.75,0.72,5.18c0.02,0.03,0.05,0.07,0.07,0.1c-0.11,0-0.23,0-0.34,0
	c-3.22,0.02-5.63,2.1-5.95,5.01c-1.94-8.39-9.04-14.09-18.3-14.09h-5.62c-38.42,0-76.84,0-115.26,0.01c-1.57,0-2.94,0.12-4.16,0.38
	C5.9,35.48,0.01,42.77,0.01,51.81c-0.01,32.6,0,65.2,0,97.79l0,32.6L0,200c0,15.67-0.01,31.33,0.02,47
	c0.01,6.97,3.21,12.48,9.23,15.95c1.44,0.83,3.02,1.3,4.55,1.76c0.65,0.19,1.3,0.39,1.93,0.61l0.24,0.08h126.74l0.33-0.18
	c0.03-0.01,0.05-0.03,0.08-0.05c7.67-1.05,15.62-8.02,15.43-19.05c-0.11-6.62-0.09-13.36-0.06-19.87c0.01-2.92,0.02-5.83,0.02-8.75
	v-0.23l5.62,0c4.62,0,9.24,0,13.87,0c4.44,0,6.61-2.16,6.61-6.6v-8.21c0-9.27,0-18.53,0.04-27.8c0-0.45,0.22-1.07,0.51-1.41
	c16.69-19.78,33.91-40.13,52.65-62.22c1.34-1.58,1.96-3.28,1.95-5.36c-0.03-6.69-0.03-13.38-0.02-20.06l0-7.09l1.43,0
	c2.18,0,4.28,0,6.39-0.01c1.79-0.01,3.39-0.64,4.5-1.76c1.01-1.03,1.57-2.42,1.55-3.93C253.6,69.65,251.15,67.32,247.76,67.19z
	 M239.22,63.9h-9.26l5.25-17.32L239.22,63.9z M182.61,38.98h-9.15l5.19-17.07L182.61,38.98z M147.13,164.09
	c0,27.29,0,54.58-0.03,81.87c0,1.63-0.19,2.9-0.59,3.88c-1.04,2.59-3.03,3.97-6.07,4.21c-0.26,0.02-0.52,0.02-0.79,0.01l-24.72,0
	c-31.93,0-63.86,0-95.8,0.01c0,0,0,0-0.01,0c-2.68,0-4.6-0.76-6.06-2.4c-1.05-1.18-1.61-2.6-1.72-4.33
	c-0.02-0.25-0.01-0.5-0.01-0.76l0-32.57c0-53.92,0-107.84-0.01-161.77c0-1.99,0.41-3.47,1.29-4.68c1.31-1.79,2.97-2.74,5.09-2.89
	c0.41-0.03,0.82-0.03,1.23-0.03c24.15,0,48.3,0,72.46,0c16.05,0,32.11,0,48.16,0c2.48,0,5.71,0.73,6.98,4.19
	c0.38,1.03,0.57,2.31,0.57,3.8c0.03,27.09,0.03,54.18,0.03,81.27l0,15.52L147.13,164.09z M159.5,51.93
	c1.09,1.12,2.68,1.74,4.46,1.76c1.88,0.02,3.76,0.01,5.63,0.01l3.56,0v152.12h-14.63l0-40c0-37.91,0-75.82,0-113.73
	c0-0.57-0.02-1.13-0.06-1.68C158.72,50.97,159.07,51.48,159.5,51.93z M130.99,53.35c-0.23-0.01-0.46,0-0.69,0l-104.67,0
	c-4.67,0-6.84,2.17-6.84,6.83l0,16.46c0.01,16.8,0.01,34.18-0.05,51.26c-0.01,2.2,0.61,3.94,1.83,5.15c1.2,1.19,2.89,1.8,5.04,1.8
	c0.02,0,0.05,0,0.07,0c12.75-0.08,25.71-0.07,38.25-0.06c4.65,0,9.29,0.01,13.94,0.01l17.31,0c11.77,0,23.53,0,35.29,0
	c4.01,0,6.41-2.25,6.41-6.01c0.01-23.16,0.01-46.31,0-69.47C136.87,55.83,134.51,53.43,130.99,53.35z M84.64,120.83
	c0.67-2.09,0.17-4.04-1.54-5.97c-3.18-3.6-6.36-7.21-9.53-10.82l-6.18-7.03c-1.94-2.22-3.89-4.43-5.86-6.63
	c-1.69-1.88-4.08-2.47-6.4-1.56c-2.01,0.78-3.43,2.72-3.81,5.18l-0.08,0.49l0.23,0.44c0.15,0.29,0.29,0.59,0.43,0.89
	c0.35,0.76,0.74,1.61,1.37,2.34c5.7,6.54,11.53,13.14,17.17,19.54l4.29,4.86c0.22,0.25,0.48,0.54,0.79,0.81
	c0.01,0.01,0.03,0.02,0.04,0.03H30.24V64.86h95.2v58.53H82.96C83.72,122.72,84.32,121.85,84.64,120.83z M78.91,147.26
	c-0.05,0-0.09,0-0.14,0c-12.55,0.04-24.43,5.07-33.45,14.18c-9.03,9.11-13.98,21.06-13.96,33.66c0.02,12.83,5.03,24.86,14.09,33.88
	c9.06,9.02,21.11,13.98,33.95,13.98c0.05,0,0.09,0,0.14,0c12.68-0.04,24.63-5.06,33.67-14.15c9.03-9.09,13.98-21.07,13.95-33.75
	C127.07,168.67,105.44,147.26,78.91,147.26z M110.5,213.99c-6.49,10.15-15.36,15.96-26.41,17.25c-15.6,1.83-27.69-3.97-35.96-17.24
	c-6.65-10.67-7.25-22.31-1.82-34.62L110.5,213.99z M114.77,203.33L52.92,170c9.26-10.06,27-15.83,43.32-7.18
	C113.05,171.71,118.16,189.55,114.77,203.33z"/>
</svg>
