<?xml version="1.0" encoding="utf-8"?>
<!-- Generator: Adobe Illustrator 24.0.2, SVG Export Plug-In . SVG Version: 6.00 Build 0)  -->
<svg version="1.1" id="Layer_1" xmlns="http://www.w3.org/2000/svg" xmlns:xlink="http://www.w3.org/1999/xlink" x="0px" y="0px"
	 viewBox="0 0 245.12 245.3" style="enable-background:new 0 0 245.12 245.3;" xml:space="preserve">
<path fill="#707171" d="M235.8,149.8c1.68-2,3.42-4.07,4.78-6.38c8.67-14.67,4.58-33.92-9.32-43.83c-1.37-0.98-2.83-1.85-4.24-2.7
	c-0.27-0.16-0.54-0.33-0.81-0.49c3.69-8.03,3.74-15.98,0.15-23.65c-3.6-7.7-9.69-12.81-18.1-15.23c1.66-9.76-0.86-18.11-7.5-24.85
	c-6.64-6.74-14.95-9.39-24.73-7.88C173.77,13.63,167.42,6,157.17,2.1c-10.52-4-20.66-2.27-29.32,4.99
	c-3.42,2.86-7.33,2.83-10.73-0.1c-7.05-6.06-15.58-8.2-24.68-6.2C80.42,3.44,72.66,11,69.37,23.25c-0.14,0.51-0.25,1.02-0.36,1.54
	c-9.74-1.51-18.04,1.13-24.68,7.85c-6.67,6.75-9.2,15.1-7.54,24.85c-7.91,2.18-14.61,7.81-18.11,15.29
	c-3.54,7.56-3.48,15.92,0.12,23.69c-0.09,0.05-0.18,0.09-0.26,0.14c-1.11,0.58-2.16,1.14-3.19,1.81
	c-8.59,5.65-14.12,14.71-15.17,24.87c-1.04,10.11,2.5,20.04,9.71,27.25c0.4,0.4,0.44,0.46,0.21,1.09c-2.16,6-2.65,11.92-1.47,17.62
	c2.39,11.58,9,19.87,19.64,24.67c0.1,0.04,0.16,0.08,0.2,0.1c0.01,0.07,0.01,0.19,0,0.4l-0.04,1.02c-0.09,2.05-0.18,4.16,0.26,6.23
	c2.19,10.17,8.6,16.57,19.05,19.01c0.13,0.03,0.44,0.25,0.58,0.46c0.58,0.91,1.14,1.87,1.68,2.81c0.87,1.51,1.78,3.07,2.85,4.52
	c13.54,18.34,39.53,22.28,57.93,8.78c1.03-0.76,1.98-1.6,2.9-2.41c1.06-0.94,2.06-1.82,3.15-2.56c4.28-2.92,9.04-2.33,13.41,1.65
	c8.27,7.54,17.64,11.35,27.96,11.35c2.14,0,4.32-0.16,6.54-0.49c14.36-2.12,25.13-10.05,32.01-23.55c0.1-0.19,0.48-0.49,0.69-0.53
	c4.76-1.03,8.58-2.94,11.67-5.86c5.94-5.6,8.47-12.53,7.51-20.62c-0.01-0.08-0.01-0.14-0.02-0.19c0.06-0.03,0.14-0.07,0.27-0.13
	c6.82-2.96,12.1-7.69,15.69-14.06c5.03-8.91,5.83-18.48,2.37-28.43c-0.15-0.43-0.15-0.43,0.27-0.93L235.8,149.8z M178.43,118.11
	c1.25-1.26,2.91-1.96,4.69-1.97c0.01,0,0.01,0,0.02,0c3.48,0,6.44,2.99,6.46,6.55c0.01,1.72-0.66,3.36-1.9,4.6
	c-1.26,1.27-2.93,1.97-4.71,1.98c-0.01,0-0.01,0-0.02,0c-3.52,0-6.4-2.92-6.43-6.53C176.53,121,177.2,119.36,178.43,118.11z
	 M215.44,134.33c-2.24,1.33-3.24,3.54-2.61,5.76c0.41,1.45,1.52,2.98,2.84,3.9c6.12,4.3,9.47,10.02,10.23,17.49h-37.19v-22.03
	c8.74-3.32,13.39-11.34,11.64-20.29c-1.63-8.31-8.94-14.08-17.8-14.08c-0.04,0-0.09,0-0.13,0c-7.99,0.05-15.35,6.45-16.76,14.57
	c-1.25,7.23,1.96,16.03,11.87,19.83l-0.01,23.59c0,5.28,4.31,9.57,9.6,9.57l36.63,0.01c-0.72,1.36-1.41,2.65-2.22,3.78
	c-3.02,4.22-7.21,7.08-12.47,8.52c-1.96,0.54-3.33,1.51-4.06,2.89c-0.74,1.39-0.77,3.09-0.1,5.04c1.41,4.09,0.91,8.32-1.35,11.62
	c-2.28,3.32-6.1,5.31-10.46,5.46c-2.64,0.09-4.48,1.5-5.49,4.18c-2.73,7.28-7.66,12.84-14.66,16.52c-2.71,1.43-5.49,2.39-8.45,2.94
	v-37.72c3.72-1.35,6.73-3.64,8.94-6.8c5.13-7.33,3.74-17.39-3.23-23.4c-6.62-5.71-17.1-5.43-23.37,0.64
	c-4.61,4.46-6.56,10.71-5.23,16.73c1.32,5.95,5.65,10.72,11.6,12.78c0.05,0.02,0.09,0.03,0.13,0.05
	c-0.03,9.66-0.03,19.31-0.03,28.97l0,8.85c-0.35-0.11-0.71-0.21-1.06-0.31c-2.11-0.62-4.1-1.21-6.04-1.98
	c-2.89-1.13-5.62-2.96-8.6-5.74c-4.43-4.14-9.74-6.21-15.06-6.21c-5.33,0-10.67,2.08-15.13,6.24c-4.51,4.21-9.78,6.87-15.67,7.93
	l0-10.11c0-5.29,0-10.58-0.01-15.88c-0.01-2.66-1.42-4.64-3.87-5.44c-2.42-0.79-4.9,0.04-6.15,2.06c-0.63,1.01-0.99,2.34-1,3.64
	c-0.05,6.53-0.05,13.17-0.05,19.6l0,6.08c-3.64-0.59-7.12-1.93-10.6-4.09c-5.97-3.71-10.22-8.89-12.63-15.39
	c-1-2.7-2.92-4.05-5.86-4.14c-3.58-0.11-6.81-1.61-9.08-4.23c-2.37-2.73-3.45-6.33-3.04-10.14c0.35-3.22,2.06-6.13,4.82-8.18
	c2.9-2.16,6.58-3.03,10.08-2.39c2.33,0.43,4.37-0.02,5.75-1.25c1.21-1.08,1.8-2.69,1.67-4.53c-0.19-2.61-1.96-4.48-4.74-5.01
	c-9.37-1.78-17.24,0.96-23.4,8.13l-0.1,0.12c-0.42,0.48-0.84,0.98-1.07,1.18c-0.31-0.1-0.96-0.46-1.54-0.77
	c-9.74-5.27-14.24-17.02-10.48-27.35c1.17-3.2,2.94-6.03,5.28-8.41c1.26-1.28,1.94-2.83,1.93-4.39c-0.01-1.43-0.62-2.8-1.71-3.87
	c-1.06-1.04-2.42-1.6-3.83-1.57c-1.58,0.03-3.15,0.78-4.42,2.13c-0.49,0.52-0.97,1.05-1.46,1.61c-2.26-2.71-3.72-5.64-4.46-8.89
	c-1.55-6.85-0.12-13.83,3.93-19.15c4.07-5.36,10.19-8.5,17.24-8.85c2.18-0.11,4.52,0.35,6.79,0.79l0.49,0.1
	c3.74,0.72,6.55-0.8,7.32-3.98c0.78-3.17-1.02-5.86-4.57-6.85c-4-1.12-8.22-1.46-12.54-1.02c-0.5,0.05-0.58,0.06-0.94-0.57
	c-2.97-5.2-2.97-11.4,0-16.57c2.95-5.14,8.26-8.23,14.19-8.29c2.41-0.02,4.3-0.93,5.33-2.56c1.02-1.62,1.03-3.71,0.03-5.87
	c-2.52-5.4-2.1-11.53,1.11-16.4c3.17-4.82,8.58-7.6,14.44-7.42c1.44,0.04,2.92,0.46,4.48,0.89l0.97,0.27
	c0.74,0.2,1.49,0.52,2.29,0.87c0.09,0.04,0.19,0.08,0.28,0.12l0,2.32c0,4.43,0.01,9-0.05,13.51c-0.07,0.06-0.15,0.11-0.2,0.13
	c-7,2.64-11.54,8.69-11.84,15.78c-0.38,9.1,5.95,16.96,14.73,18.28c11.15,1.68,18.76-6.08,20.27-14.24
	c1.57-8.47-3.45-16.98-11.66-19.78c-0.09-0.03-0.16-0.06-0.2-0.08c0-0.04-0.01-0.1,0-0.17c0.01-4.6,0.02-9.2,0.03-13.8
	c0.01-6.86,0.02-13.71,0.06-20.57c0-0.35,0.25-0.91,0.56-1.25c7.16-8.08,18.33-8.78,26.58-1.66c2.54,2.19,5.23,3.54,8.23,4.11
	c5.57,1.07,10.55-0.25,14.79-3.91c3.94-3.4,8.17-5.05,12.95-5.05c0.01,0,0.02,0,0.03,0c9.67,0.01,17.78,7.66,18.47,17.41
	c0.04,0.51-0.01,0.6-0.45,0.91c-3.46,2.39-6.28,5.6-8.37,9.53c-1.74,3.28-1.05,6.44,1.77,8.04c1.27,0.72,2.89,0.9,4.33,0.48
	c1.09-0.32,2.62-1.13,3.68-3.15c3.1-5.91,8.07-8.93,14.76-8.99c5.62-0.07,10.83,2.75,13.89,7.49c3.12,4.81,3.55,10.8,1.15,16.03
	c-1.36,2.96-0.81,4.93-0.12,6.06c0.71,1.15,2.26,2.56,5.64,2.69c6.27,0.25,10.99,3.1,14.03,8.48c3.12,5.51,2.99,11.14-0.38,16.74
	c-0.13,0.08-0.39,0.14-0.5,0.15c-5.78-0.32-10.47,0.23-14.74,1.71c-2.81,0.98-4.38,2.99-4.31,5.51c0.06,1.88,0.91,3.52,2.34,4.51
	c1.48,1.03,3.43,1.24,5.33,0.6c5.29-1.81,10.54-1.82,15.59-0.02c7.03,2.5,12.19,8.09,14.17,15.35c1.95,7.15,0.41,14.48-4.21,20.17
	c-0.46-0.39-0.91-0.78-1.36-1.17c-1.93-1.66-3.92-3.38-5.93-5C219.79,133.26,217.52,133.1,215.44,134.33z M154.28,174.58
	c1.27-1.25,2.9-1.94,4.61-1.94c0.01,0,0.03,0,0.04,0c3.6,0.02,6.42,2.91,6.42,6.56c0,1.79-0.68,3.45-1.91,4.68
	c-1.22,1.22-2.87,1.88-4.65,1.88c-0.01,0-0.02,0-0.04,0c-3.46-0.02-6.49-3.08-6.48-6.55C152.29,177.49,153,175.84,154.28,174.58z
	 M82.66,74.99c-1.28,1.22-2.95,1.86-4.66,1.82c-3.61-0.11-6.48-3.08-6.38-6.62c0.05-1.83,0.79-3.5,2.09-4.72
	c1.25-1.17,2.89-1.79,4.6-1.72c3.64,0.13,6.45,3.04,6.4,6.62C84.68,72.11,83.95,73.75,82.66,74.99z M92.13,162.64
	c-0.22-0.08-0.34-0.14-0.4-0.17c-0.01-0.05-0.01-0.13,0-0.25c0.11-2.46,0.08-4.88,0.04-7.35c-0.08-5.26-4.27-9.41-9.53-9.45
	c-2.65-0.02-5.3-0.01-7.96,0l-6.67,0.01v-5.97c9.85-3.65,13.06-12.7,11.82-19.79c-1.4-8.01-8.44-14.28-16.38-14.59
	c-8.53-0.33-15.98,5.02-18.08,13.03c-1.1,4.22-0.75,8.27,1.03,12.04c2.12,4.46,5.64,7.59,10.48,9.32l0,1.61
	c0,1.96-0.01,3.89,0.01,5.81c0.04,5.48,4.2,9.61,9.69,9.61l14.51,0c0,0.22,0,0.43,0,0.64c-0.01,1.64-0.03,3.19,0.04,4.76
	c0.02,0.43-0.03,0.55-0.03,0.55c0,0-0.09,0.11-0.53,0.27c-7.02,2.62-11.58,9.09-11.61,16.48c-0.03,7.19,4.26,13.48,11.2,16.42
	c2,0.85,4.17,1.25,6.35,1.25c4.59,0,9.25-1.81,12.58-5.16c4.3-4.32,6.08-10.42,4.76-16.32C102.12,169.49,97.89,164.71,92.13,162.64z
	 M86.12,185.78c-1.75-0.04-3.38-0.77-4.59-2.04c-1.21-1.28-1.85-2.96-1.8-4.73c0.1-3.54,2.98-6.36,6.45-6.36c0.05,0,0.11,0,0.16,0
	c1.75,0.04,3.45,0.82,4.67,2.12c1.21,1.29,1.84,2.93,1.78,4.62C92.65,182.93,89.6,185.85,86.12,185.78z M61.95,116.16
	c0.05,0,0.11,0,0.16,0c1.8,0.05,3.45,0.77,4.66,2.05c1.19,1.26,1.82,2.92,1.76,4.68v0c-0.11,3.61-3.1,6.46-6.6,6.4
	c-1.73-0.04-3.43-0.81-4.66-2.12c-1.22-1.29-1.85-2.93-1.79-4.62C55.61,119,58.5,116.16,61.95,116.16z M164.39,139.09
	c0.04,3.96,0.03,7.92,0.01,11.64c-0.01,1.68-0.61,3.19-1.7,4.27c-1,0.98-2.34,1.52-3.79,1.52c-0.02,0-0.04,0-0.06,0
	c-3.14-0.03-5.52-2.52-5.53-5.79c-0.01-2.69-0.01-5.38-0.01-8.15l0-2.19h-0.84c-1.78,0-3.53,0-5.28,0
	c-5.13-0.01-8.81-2.97-9.84-7.92c-0.19-0.9-0.18-1.77-0.18-2.61l0-0.41c-0.01-3.57-0.01-7.15-0.01-10.82l0-2.46l-11.37,0
	c-8.98,0-17.96,0-26.94,0c-6.03,0-10.08-4.04-10.09-10.05c-0.01-3.77-0.01-7.53-0.01-11.3c0-3.3,2.34-5.83,5.45-5.89
	c1.5-0.03,2.89,0.52,3.92,1.52c1.1,1.09,1.71,2.64,1.71,4.37l0,10.28l14.76,0c7.94,0,15.87,0,23.81,0c0,0,0.01,0,0.01,0
	c2.75,0,5.26,0.99,7.06,2.8c1.79,1.8,2.78,4.29,2.78,7.01c-0.01,3.62,0,7.24,0,10.94l0,3.44l0.91,0l5.21,0c0,0,0.01,0,0.01,0
	C160.2,129.27,164.32,133.31,164.39,139.09z M165.31,52.78c-8.79-0.89-16.08,3.59-19.03,11.71c-0.04,0.12-0.08,0.2-0.1,0.24
	c-0.06,0.01-0.15,0.01-0.32,0.02c-7.62-0.03-15.24-0.03-22.86-0.02l-4.23,0c-3.28,0-5.78,2.38-5.81,5.53
	c-0.01,1.48,0.53,2.86,1.54,3.88c1.07,1.08,2.57,1.68,4.22,1.69c2.12,0.01,4.25,0,6.37,0l16.51-0.01l4.56,0l0.04,0.1
	c0.29,0.71,0.55,1.36,0.84,2.01c2.81,6.2,9.14,10,15.87,10c1.65,0,3.33-0.23,4.99-0.71c8.24-2.39,13.74-10.79,12.52-19.13
	C179.23,59.98,172.88,53.55,165.31,52.78z M156.32,70.07c0.05-3.38,3.08-6.34,6.49-6.34c0.01,0,0.02,0,0.03,0
	c3.69,0.02,6.59,2.91,6.6,6.58c0,1.73-0.69,3.36-1.95,4.61c-1.24,1.23-2.84,1.9-4.53,1.87c-1.83-0.02-3.51-0.73-4.76-1.99
	C156.96,73.54,156.29,71.86,156.32,70.07z M117.84,95.88c-2.82-0.17-4.87-2.45-4.88-5.44c-0.01-2.86,2.03-5.14,4.85-5.43
	c1.16-0.12,2.3-0.09,3.41-0.06c0.18,0,0.37,0.01,0.55,0.01l0.85-0.01c0.44,0,0.88-0.01,1.31-0.02c1.03-0.02,2.09-0.05,3.17,0.05
	c2.85,0.26,4.96,2.48,5.01,5.27c0.05,3.01-2.11,5.48-4.93,5.63c-1.58,0.08-3.15,0.13-4.7,0.13
	C120.91,96.02,119.36,95.97,117.84,95.88z M132.12,50.15c-0.02,2.95-2.36,5.3-5.45,5.47c-0.54,0.03-1.07,0.04-1.6,0.04
	c-0.43,0-0.86-0.01-1.28-0.01c-0.41-0.01-0.82-0.01-1.23-0.01h0c-0.43,0-0.86,0-1.29,0.01c-0.97,0.01-1.97,0.03-2.97-0.03
	c-3.08-0.16-5.38-2.56-5.34-5.59c0.04-3,2.45-5.41,5.49-5.47c2.89-0.06,5.55-0.06,8.13,0C129.76,44.63,132.14,47.04,132.12,50.15z
	 M132.11,211.4c0.07,3.03-2.04,5.35-5.02,5.52c-1.47,0.08-2.96,0.12-4.45,0.12c-1.57,0-3.15-0.05-4.73-0.14
	c-2.91-0.17-5.04-2.58-4.95-5.6c0.09-2.89,2.26-5.13,5.16-5.32c1.06-0.07,2.11-0.05,3.12-0.04c0.25,0,0.51,0.01,0.76,0.01l0.56,0
	c0.43,0,0.85-0.01,1.28-0.01c0.98-0.02,1.98-0.03,3,0.03C129.82,206.15,132.04,208.43,132.11,211.4z M112.97,171.18
	c-0.02-3.11,2.12-5.38,5.2-5.5c2.93-0.12,5.9-0.12,8.81,0.01c2.96,0.13,5.21,2.6,5.12,5.62c-0.08,2.95-2.21,5.12-5.17,5.29
	c-1.01,0.06-2.02,0.04-2.99,0.03c-0.08,0-0.16,0-0.24,0l-1.04,0.02c-0.44,0-0.88,0.01-1.33,0.01c-0.45,0.01-0.91,0.01-1.37,0.01
	c-0.58,0-1.16-0.01-1.74-0.05C115.2,176.44,112.99,174.15,112.97,171.18z M118.25,136.26c-3.04-0.11-5.26-2.39-5.28-5.42
	c-0.02-3.02,2.23-5.35,5.35-5.53c1.01-0.06,2.02-0.04,2.99-0.03c0.43,0.01,0.85,0.01,1.28,0.01h0.68c0.2,0,0.4-0.01,0.6-0.01
	c0.97-0.01,1.98-0.03,2.99,0.03c3.02,0.18,5.23,2.46,5.25,5.43c0.02,2.99-2.28,5.42-5.23,5.52c-1.46,0.05-2.91,0.08-4.34,0.08
	C121.08,136.33,119.65,136.31,118.25,136.26z M114.51,33.79c-1.03-1.05-1.58-2.47-1.55-3.97c0.06-3.06,2.42-5.4,5.49-5.44
	c2.99-0.04,5.69-0.04,8.25,0c2.99,0.05,5.42,2.53,5.43,5.53c0.01,3.02-2.36,5.46-5.38,5.55c-0.55,0.02-1.1,0.02-1.65,0.02
	c-0.41,0-0.83,0-1.24-0.01c-0.45,0-0.89-0.01-1.33-0.01l-1.16,0c-0.96,0-1.93,0.01-2.89-0.01
	C116.94,35.44,115.53,34.84,114.51,33.79z M112.97,191.26c0.01-3.07,2.36-5.43,5.47-5.47c2.82-0.04,5.6-0.04,8.27,0
	c3.04,0.05,5.41,2.49,5.4,5.57c-0.01,2.99-2.27,5.34-5.26,5.47c-0.58,0.02-1.16,0.03-1.73,0.03c-0.45,0-0.9,0-1.35-0.01
	c-0.44,0-0.88-0.01-1.32-0.01c-0.01,0-0.01,0-0.02,0c-0.4,0-0.81,0-1.21,0.01c-0.96,0.01-1.92,0.02-2.87-0.02
	C115.32,196.72,112.96,194.27,112.97,191.26z M112.97,150.99c-0.01-3.05,2.36-5.48,5.41-5.54c2.91-0.05,5.75-0.05,8.44,0
	c2.9,0.06,5.27,2.52,5.28,5.48c0.02,3.04-2.35,5.48-5.39,5.56c-0.54,0.01-1.08,0.02-1.63,0.02c-0.44,0-0.89,0-1.33-0.01l-1.27-0.01
	l-1.26,0.01c-0.94,0.01-1.88,0.01-2.81-0.01C115.37,156.4,112.98,153.99,112.97,150.99z"/>
</svg>
