<?xml version="1.0" encoding="utf-8"?>
<!-- Generator: Adobe Illustrator 24.0.2, SVG Export Plug-In . SVG Version: 6.00 Build 0)  -->
<svg version="1.1" id="Layer_1" xmlns="http://www.w3.org/2000/svg" xmlns:xlink="http://www.w3.org/1999/xlink" x="0px" y="0px"
	 viewBox="0 0 258.8 258.89" style="enable-background:new 0 0 258.8 258.89;" xml:space="preserve">
<path fill="#707171" d="M252.14,98h-18.01c-0.6-1.47-1.2-2.92-1.79-4.37c-1.66-4.07-3.22-7.91-4.95-11.79l-0.15-0.34
	c-0.86-1.93-1.38-3.09-1.26-3.68c0.13-0.62,1.14-1.62,2.68-3.13c3.12-3.07,6.21-6.18,9.42-9.4l0.69-0.69
	c1.27-1.27,1.96-2.96,1.94-4.75c-0.01-1.79-0.73-3.47-2.01-4.71c-7.15-6.97-22.32-21.97-30.08-29.67c-0.99-0.99-1.35-1.85-1.33-3.2
	c0.07-3.77,0.07-10.57,0.06-15.61c-0.01-3.67-3-6.65-6.66-6.65H58.13c-1.78,0-3.46,0.7-4.72,1.96c-1.26,1.26-1.95,2.94-1.95,4.72
	l0,0.31c0.01,5.08,0.03,10.33-0.08,15.46c-0.02,0.91-0.52,2.12-1.13,2.75c-6.5,6.62-22.21,22.07-30.17,29.8
	c-1.29,1.25-2.01,2.93-2.02,4.73c-0.01,1.8,0.68,3.49,1.95,4.77l0.21,0.21c4.32,4.33,8.39,8.41,12.4,12.54
	c0.2,0.2,0.41,0.73,0.43,0.98c-2.24,5.34-4.55,10.59-7,16.15l-1.64,3.72H6.66c-3.67,0-6.66,2.99-6.66,6.66v49.52
	c0,3.67,2.99,6.66,6.66,6.66h17.93c0.64,1.54,1.26,3.06,1.88,4.58c1.83,4.51,3.57,8.77,5.65,12.99c1.12,2.27,0.99,3.05-0.79,4.65
	c-3.67,3.29-7.16,6.76-10.53,10.11l-0.31,0.31c-1.27,1.26-1.97,2.93-1.97,4.71c0,1.79,0.69,3.47,1.95,4.73l35.27,35.38
	c1.26,1.27,2.94,1.96,4.73,1.96c0.01,0,0.01,0,0.02,0c1.79-0.01,3.47-0.71,4.73-1.99c3.68-3.74,7.85-7.97,11.98-12.09
	c0.23-0.23,0.63-0.45,0.86-0.54c5.43,2.31,10.79,4.69,16.45,7.2l3.51,1.56v17.72c0,3.67,2.99,6.66,6.66,6.66h49.52
	c3.67,0,6.66-2.99,6.66-6.66v-18.1c1.12-0.44,2.23-0.87,3.34-1.29c3.45-1.34,6.71-2.6,10.02-3.95c0.98-0.4,1.95-0.97,2.88-1.52
	c1.39-0.81,2.95-1.74,3.85-1.55c1.24,0.26,2.57,1.84,3.85,3.37c0.56,0.67,1.14,1.36,1.73,1.97c2.33,2.39,4.63,4.81,6.84,7.14
	c1.25,1.31,2.93,2.05,4.75,2.07c1.82,0.04,3.52-0.67,4.8-1.95l35.29-35.26c1.26-1.26,1.96-2.94,1.96-4.73c0-1.78-0.7-3.46-1.97-4.72
	c-3.73-3.7-7.96-7.9-12.03-12.03c-0.23-0.23-0.45-0.64-0.53-0.87c2.3-5.44,4.67-10.79,7.18-16.45l1.55-3.51h17.75
	c3.67,0,6.66-2.99,6.66-6.66v-49.53C258.8,100.99,255.81,98,252.14,98z M225.42,150.61c-0.76,2.05-1.49,4.07-2.22,6.06
	c-1.76,4.83-3.42,9.39-5.26,13.94c-1.11,2.74-2.64,5.63-4.8,9.1c-1.71,2.73-0.62,4.37,0.81,5.74c3.55,3.4,7.07,6.89,10.48,10.26
	l0.2,0.2c0.7,0.69,1.08,1.61,1.08,2.59c0,0.98-0.38,1.91-1.07,2.6l-23.14,23.17c-0.69,0.69-1.61,1.07-2.59,1.07
	c-0.01,0-0.01,0-0.02,0c-0.99,0-1.91-0.39-2.6-1.1l-12.41-12.65l-0.95,0.43c-2.15,0.97-4.23,1.92-6.29,2.86
	c-4.88,2.23-9.49,4.35-14.19,6.31c-2.48,1.04-5.2,1.75-7.83,2.44c-0.61,0.16-1.22,0.32-1.82,0.48c-2.15,0.58-3.14,1.89-3.11,4.13
	c0.07,5.06,0.06,10.02,0.05,15.27l0,0.41c0,2.02-1.65,3.66-3.66,3.66h-33.04c-2.01,0-3.65-1.64-3.66-3.65l0-0.48
	c-0.02-4.58-0.05-9.31,0.09-13.94c0.09-3.22-1.06-4.76-4.12-5.49c-9.31-2.23-18.15-5.93-26.29-10.98c-0.88-0.54-1.63-0.76-2.3-0.76
	c-1.19,0-2.08,0.7-2.83,1.47c-3.52,3.64-7.18,7.32-10.72,10.87l-0.18,0.18c-0.69,0.7-1.62,1.08-2.6,1.08c0,0,0,0,0,0
	c-0.98,0-1.9-0.38-2.6-1.08h0l-23.2-23.3c-0.69-0.7-1.07-1.62-1.07-2.61s0.39-1.9,1.1-2.59l13.3-13.07l-0.64-1.02
	c-6.16-9.84-10.43-20.11-13.06-31.4l-0.27-1.16H14.9c-2.02,0-3.66-1.64-3.66-3.66v-32.93c0-2.02,1.64-3.66,3.66-3.66h18.6l0.33-1.04
	c0.11-0.34,0.22-0.66,0.32-0.97c0.23-0.66,0.44-1.29,0.6-1.95c2.29-9.43,6.01-18.37,11.06-26.56c1.22-1.97,1.03-3.5-0.63-5.13
	c-3.64-3.57-7.23-7.2-10.71-10.71l-0.17-0.17c-1.39-1.41-1.41-3.71-0.03-5.13l17.18-17.72c0,8.88-0.02,17.76-0.05,26.65
	c-0.05,20.29-0.11,41.28,0.12,61.92c0.35,31.68,14.85,55.41,43.11,70.55c10.09,5.4,21.25,8.16,33.17,8.21
	c17.96,0.07,36.21,0.06,53.87,0.06c7.35,0,14.7-0.01,22.05,0h3.52V41.11l16.65,16.73c1.42,1.43,1.42,3.75,0,5.18l-12.93,12.9
	l0.65,1.02c5.98,9.42,10.22,19.62,12.95,31.2l0.27,1.16h19.05c2.02,0,3.66,1.64,3.66,3.66v33.02c0,2.02-1.64,3.66-3.66,3.66h-18.1
	L225.42,150.61z M66.4,11.25h125.82c2.02,0,3.66,1.64,3.66,3.66v181.2c-0.21,0.01-0.43,0.02-0.65,0.02l-18.05,0.01
	c-15.49,0.01-31.5,0.03-47.25-0.02c-32.31-0.09-59.4-22.22-65.88-53.81c-0.82-3.98-1.23-8.2-1.25-12.55
	c-0.09-33.66-0.09-96.42-0.08-114.86v0C62.73,12.89,64.38,11.25,66.4,11.25z M76.51,67.51c0-2.98,2.42-5.4,5.39-5.4h95.11
	c2.97,0,5.39,2.42,5.39,5.39c0,2.98-2.42,5.4-5.39,5.4H81.9C78.93,72.91,76.51,70.49,76.51,67.51z M76.51,88.17
	c0-2.98,2.42-5.4,5.39-5.4h95.11c2.97,0,5.39,2.42,5.39,5.39v0c0,2.97-2.42,5.39-5.39,5.39H81.9
	C78.93,93.57,76.51,91.15,76.51,88.17z M76.5,108.84c0-2.99,2.42-5.41,5.39-5.41H177c2.97,0,5.39,2.42,5.39,5.39v0.02
	c0,2.97-2.42,5.39-5.39,5.39H81.89C78.92,114.24,76.5,111.82,76.5,108.84z M76.42,129.49c0-2.97,2.42-5.39,5.39-5.39h95.14
	c2.97,0,5.39,2.42,5.39,5.39s-2.42,5.39-5.39,5.39H81.81C78.84,134.89,76.42,132.47,76.42,129.49z M97.11,26.24v-0.1
	c0-2.97,2.42-5.39,5.39-5.39h53.76c2.97,0,5.39,2.42,5.39,5.39v0.1c0,2.97-2.42,5.39-5.39,5.39H102.5
	C99.53,31.63,97.11,29.21,97.11,26.24z M182.36,150.14c0,2.99-2.43,5.42-5.42,5.42h-12.49c-2.99,0-5.42-2.43-5.42-5.42
	c0-2.97,2.42-5.39,5.39-5.39h12.55C179.94,144.75,182.36,147.17,182.36,150.14z"/>
</svg>
