<?xml version="1.0" encoding="utf-8"?>
<!-- Generator: Adobe Illustrator 24.0.2, SVG Export Plug-In . SVG Version: 6.00 Build 0)  -->
<svg version="1.1" id="Слой_2" xmlns="http://www.w3.org/2000/svg" xmlns:xlink="http://www.w3.org/1999/xlink" x="0px" y="0px"
	 viewBox="250.78 195.83 181.95 155.62" style="enable-background:new 250.78 195.83 181.95 155.62;" xml:space="preserve">
<style type="text/css">
	.st0{fill:#707171;}
</style>
<path class="st0" d="M298.63,266.31c-4.25,4.5-8.75,4.88-11.3,1.38c0-24.53-0.64-20.87,23.11-20.72c3.44,2.19,3.85,4.59-2.26,8.67
	C298.89,255.67,298.63,258.37,298.63,266.31z M308.17,342.48c-9.28-0.04-9.54-2.74-9.54-10.67c-4.25-4.5-8.75-4.88-11.3-1.38
	c0,24.53-0.64,20.87,23.11,20.72C313.87,348.95,314.28,346.55,308.17,342.48z M409.62,246.94c-3.44,2.19-3.85,4.59,2.26,8.67
	c9.28,0.04,9.54,2.74,9.54,10.67h0c4.25,4.5,8.75,4.88,11.3,1.38C432.73,243.13,433.37,246.79,409.62,246.94z M421.43,331.84
	L421.43,331.84c0,7.94-0.26,10.64-9.54,10.67c-6.11,4.07-5.7,6.47-2.26,8.67c23.75,0.15,23.11,3.8,23.11-20.72
	C430.17,326.95,425.68,327.34,421.43,331.84z M291.32,325.57l8.8,3.07l-0.5-58.94l-8.04,1.86L291.32,325.57z M419.93,328.52
	l8.24-2.2l0.25-54l-8.5-3.29V328.52z M309.95,258.1l99.97,0.13l-4.26-7.37l-90.87,0.28L309.95,258.1z M309.95,340.21l4.83,6.97
	l90.87,0.28l4.26-7.37L309.95,340.21z M303.02,335.84v-73.72c0-1.76,1.44-3.2,3.2-3.2h107.25c1.76,0,3.2,1.44,3.2,3.2v73.72
	c0,1.76-1.44,3.2-3.2,3.2H306.23C304.46,339.04,303.02,337.6,303.02,335.84z M309.74,329.52c0,1.46,1.19,2.65,2.65,2.65h94.91
	c1.46,0,2.65-1.19,2.65-2.65v-61.09c0-1.46-1.19-2.65-2.65-2.65H312.4c-1.46,0-2.65,1.19-2.65,2.65V329.52z M339.5,295.5h-24V271h24
	V295.5z M336.5,274h-18v18.5h18V274z M372.83,295.5h-24V271h24V295.5z M369.83,274h-18v18.5h18V274z M406.17,295.5h-24V271h24V295.5
	z M403.17,274h-18v18.5h18V274z M339.5,325.33h-24v-24.5h24V325.33z M336.5,303.83h-18v18.5h18V303.83z M372.83,325.33h-24v-24.5h24
	V325.33z M369.83,303.83h-18v18.5h18V303.83z M406.17,325.33h-24v-24.5h24V325.33z M403.17,303.83h-18v18.5h18V303.83z
	 M375.34,204.77c9.28,0.04,9.54,2.74,9.54,10.67h0c4.25,4.5,8.75,4.88,11.3,1.38c0-24.53,0.64-20.87-23.11-20.72
	C369.64,198.3,369.23,200.7,375.34,204.77z M373.37,207.39l-4.26-7.37l-90.87,0.28l-4.83,6.97L373.37,207.39z M273.2,278.69V217.6
	c0-1.46,1.19-2.65,2.65-2.65h94.91c1.46,0,2.65,1.19,2.65,2.65V245h6.72v-33.71c0-1.76-1.44-3.2-3.2-3.2H269.68
	c-1.76,0-3.2,1.44-3.2,3.2V285c0,1.76,1.44,3.2,3.2,3.2h15.99v-6.86h-9.82C274.4,281.35,273.2,280.15,273.2,278.69z M391.89,221.49
	l-8.5-3.29l0.04,26.67h8.46V221.49z M273.89,300.31c3.44-2.19,3.85-4.59-2.26-8.67c-9.28-0.04-9.54-2.74-9.54-10.67
	c-4.25-4.5-8.75-4.88-11.3-1.38C250.78,304.12,250.14,300.47,273.89,300.31z M262.09,215.48c0-7.94,0.26-10.64,9.54-10.67
	c6.11-4.07,5.7-6.47,2.26-8.67c-23.75-0.15-23.11-3.8-23.11,20.72C253.34,220.36,257.84,219.98,262.09,215.48z M278.24,296.35
	l7.43,0.02v-7.01l-12.27,0.02L278.24,296.35z M254.78,274.74l8.8,3.07l-0.5-58.94l-8.04,1.86L254.78,274.74z M338.99,236.28
	l-4.59-4.55c-0.51,3.3,0.42,6.72,2.89,9.17c3.3,3.3,8.35,3.88,12.54,1.83l3.12,3.12l2.49,2.49h10.97l-7.76-7.76l-3.34-3.34
	c2.06-4.19,1.48-9.22-1.83-12.54c-2.47-2.47-5.88-3.4-9.2-2.89l4.61,4.55l1.34,6.29l-4.96,4.96L338.99,236.28z M282.13,239.94v3.77
	h13.42c0.57-4.19,4.16-7.42,8.5-7.42c4.33,0,7.91,3.23,8.47,7.42h13.47v-3.77h-4.17c-0.42-1.46-1-2.84-1.72-4.14l2.95-2.96
	l-6.98-6.97l-2.96,2.96c-1.28-0.74-2.66-1.3-4.13-1.72v-4.16h-9.86v4.16c-1.46,0.42-2.84,0.98-4.14,1.72l-2.94-2.96l-6.99,6.97
	l2.96,2.96c-0.74,1.3-1.3,2.68-1.72,4.14H282.13z M269.79,309.29l-15.83,16.11l15.83,16.11v-11.08h7.07v-10.05h-7.07V309.29z
	 M409.28,237.79l15.83-16.11l-15.83-16.11v11.08h-7.07v10.05h7.07V237.79z"/>
</svg>
