<?xml version="1.0" encoding="utf-8"?>
<!-- Generator: Adobe Illustrator 24.0.2, SVG Export Plug-In . SVG Version: 6.00 Build 0)  -->
<svg version="1.1" id="Flag" xmlns="http://www.w3.org/2000/svg" xmlns:xlink="http://www.w3.org/1999/xlink" x="0px" y="0px"
	 viewBox="0 0 1029.16 1029.16" style="enable-background:new 0 0 1029.16 1029.16;" xml:space="preserve">
<style type="text/css">
	.st0{fill:#707171;}
</style>
<path class="st0" d="M988.71,314.27c-25.92-61.28-63.02-116.31-110.27-163.56c-47.25-47.25-102.28-84.35-163.56-110.27
	C651.43,13.61,584.04,0,514.58,0c-69.46,0-136.85,13.61-200.31,40.45c-61.28,25.92-116.31,63.02-163.56,110.27
	c-47.25,47.25-84.35,102.28-110.27,163.56C13.61,377.73,0,445.12,0,514.58c0,69.46,13.61,136.85,40.45,200.31
	c25.92,61.28,63.02,116.31,110.27,163.56c47.25,47.25,102.28,84.35,163.56,110.27c63.46,26.84,130.85,40.45,200.31,40.45
	c69.46,0,136.85-13.61,200.31-40.45c61.28-25.92,116.31-63.02,163.56-110.27s84.35-102.28,110.27-163.56
	c26.84-63.46,40.45-130.85,40.45-200.31C1029.16,445.12,1015.55,377.73,988.71,314.27z M514.58,974.16
	C261.17,974.16,55,767.99,55,514.58S261.17,55,514.58,55s459.58,206.17,459.58,459.58S767.99,974.16,514.58,974.16z M577.54,854.33
	l-34.57,26.17l9.07,48.54l-37.86-27.54l-37.95,26.77l9.2-47.79l-34.15-26.29h47.57l15.33-46.06l15.62,46.25L577.54,854.33z
	 M485.42,170.32l-34.15-26.29h47.57l15.33-46.06l15.62,46.25l47.74-0.05l-34.57,26.17l9.07,48.54l-37.86-27.54l-37.95,26.77
	L485.42,170.32z M700.86,189.88l47.74-0.05L714.02,216l9.07,48.54L685.23,237l-37.95,26.77l9.2-47.79l-34.15-26.29h47.57
	l15.33-46.06L700.86,189.88z M306.11,215.98l-34.15-26.29h47.57l15.33-46.06l15.62,46.25l47.74-0.05L363.65,216l9.07,48.54
	L334.86,237l-37.95,26.77L306.11,215.98z M748.6,806.36l-34.57,26.18l9.07,48.54l-37.86-27.54l-37.95,26.78l9.2-47.79l-34.15-26.29
	h47.57l15.33-46.06l15.62,46.25L748.6,806.36z M398.22,806.36l-34.57,26.18l9.07,48.54l-37.86-27.54l-37.95,26.78l9.2-47.79
	l-34.15-26.29h47.57l15.33-46.06l15.62,46.25L398.22,806.36z M219.47,323.91l47.74-0.05l-34.57,26.17l9.07,48.54l-37.86-27.54
	L165.9,397.8l9.19-47.79l-34.15-26.29h47.57l15.33-46.06L219.47,323.91z M836.16,323.91l47.74-0.05l-34.57,26.17l9.07,48.54
	l-37.86-27.54l-37.95,26.77l9.2-47.79l-34.15-26.29h47.57l15.33-46.06L836.16,323.91z M267.21,678.32l-34.57,26.17l9.07,48.54
	l-37.86-27.54l-37.95,26.78l9.2-47.79l-34.15-26.29h47.57l15.33-46.06l15.62,46.25L267.21,678.32z M883.9,678.32l-34.57,26.17
	l9.07,48.54l-37.86-27.54l-37.95,26.78l9.2-47.79l-34.15-26.29h47.57l15.33-46.06l15.62,46.25L883.9,678.32z M125.2,573.7l9.2-47.79
	l-34.15-26.29h47.57l15.33-46.07l15.62,46.25l47.74-0.05l-34.57,26.17l9.07,48.54l-37.86-27.54L125.2,573.7z M929.02,499.75
	l-34.57,26.17l9.07,48.54l-37.86-27.54l-37.95,26.77l9.2-47.79l-34.15-26.29h47.57l15.33-46.07l15.62,46.25L929.02,499.75z
	 M347.86,413.16v73.07h106.67v42H347.86v83.15h119.27v42.42H296.2V370.74h164.62v42.42H347.86z M619.99,658.41
	c-34.16,0-60.68-10.14-79.58-30.45c-18.9-20.3-28.35-52-28.35-95.12v-162.1h51.65v165.04c0,26.88,5.18,47.11,15.54,60.68
	c10.36,13.58,24.5,20.37,42.42,20.37c39.75,0,59.63-27.02,59.63-81.05V370.74h51.66v161.68c0,42.28-10.01,73.85-30.03,94.7
	C682.91,647.99,655.26,658.41,619.99,658.41z"/>
</svg>
