<?xml version="1.0" encoding="utf-8"?>
<!-- Generator: Adobe Illustrator 24.0.2, SVG Export Plug-In . SVG Version: 6.00 Build 0)  -->
<svg version="1.1" id="Слой_2" xmlns="http://www.w3.org/2000/svg" xmlns:xlink="http://www.w3.org/1999/xlink" x="0px" y="0px"
	 viewBox="248.82 217.16 145.41 104.79" style="enable-background:new 248.82 217.16 145.41 104.79;" xml:space="preserve">
<style type="text/css">
	.st0{fill:#717171;}
</style>
<path class="st0" d="M248.82,238.19c0-24.53-0.64-20.87,23.11-20.72c3.44,2.19,3.85,4.59-2.26,8.67c-9.28,0.04-9.54,2.74-9.54,10.67
	C255.88,241.31,251.38,241.69,248.82,238.19z M269.67,312.98c-9.28-0.04-9.54-2.74-9.54-10.67c-4.25-4.5-8.75-4.88-11.3-1.38
	c0,24.53-0.64,20.87,23.11,20.72C275.37,319.45,275.78,317.05,269.67,312.98z M373.38,226.1c9.28,0.04,9.54,2.74,9.54,10.67h0
	c4.25,4.5,8.75,4.88,11.3,1.38c0-24.53,0.64-20.87-23.11-20.72C367.68,219.63,367.27,222.03,373.38,226.1z M382.93,302.34
	L382.93,302.34c0,7.94-0.26,10.64-9.54,10.67c-6.11,4.07-5.7,6.47-2.26,8.67c23.75,0.15,23.11,3.8,23.11-20.72
	C391.67,297.45,387.18,297.84,382.93,302.34z M252.82,296.07l8.8,3.07l-0.5-58.94l-8.04,1.86L252.82,296.07z M381.43,299.02
	l8.24-2.2l0.25-54l-8.5-3.29V299.02z M371.41,228.72l-4.26-7.37l-90.87,0.28l-4.83,6.97L371.41,228.72z M271.45,310.71l4.83,6.97
	l90.87,0.28l4.26-7.37L271.45,310.71z M374.97,229.42c1.76,0,3.2,1.44,3.2,3.2v73.72c0,1.76-1.44,3.2-3.2,3.2H267.73
	c-1.76,0-3.2-1.44-3.2-3.2v-73.72c0-1.76,1.44-3.2,3.2-3.2H374.97z M371.46,238.93c0-1.46-1.19-2.65-2.65-2.65H273.9
	c-1.46,0-2.65,1.19-2.65,2.65v61.09c0,1.46,1.19,2.65,2.65,2.65h94.91c1.46,0,2.65-1.19,2.65-2.65V238.93z M297.23,251.56
	c0.79,1.94,1.99,4.4,3.63,7.38l4.46,8.06h4.96v-20.89h-4.34v6.08c0,3.37,0.12,6.28,0.37,8.74h-0.06c-1.1-2.69-2.23-5.07-3.41-7.16
	l-4.34-7.66h-5.52V267h4.34v-6.29c0-3.49-0.07-6.54-0.22-9.15H297.23z M327.7,263.13h-8.59v-4.96h7.69v-3.84h-7.69v-4.34h8.15v-3.88
	H314.4V267h13.3V263.13z M349.71,254.63c-0.7,4.01-1.11,6.44-1.21,7.29h-0.06c-0.33-2.52-0.7-4.86-1.12-7.01l-1.67-8.8h-5.02
	l-1.77,8.52c-0.66,3.27-1.12,5.74-1.36,7.41h-0.06c-0.5-3.12-0.91-5.57-1.24-7.35l-1.58-8.59h-5.05l4.96,20.89h5.18l1.98-8.96
	c0.39-1.67,0.8-3.83,1.21-6.48h0.06c0.19,1.84,0.52,3.99,0.99,6.45l1.77,8.99h5.12l5.39-20.89h-4.8L349.71,254.63z M348.07,280.88
	c-4.1,2.26-9.73,4.35-15.35,5.23c-5,0.78-14.4-1.11-14.4-3.34c0-0.85,8.25,2.09,13.24,0.75c3.83-1.02,3.28-4.6,1.2-5.07
	c-2.07-0.47-14.19-4.91-19.36-5.06c-2.44-0.07-8.46,0.85-11.37,1.32c-1,0.16-1.62,0.14-1.69,1.1c-0.29,4.44-0.86,13.52-1.17,18.26
	c-0.01,0.1,0.13,1.45,1.24,0.5c1.22-1.04,2.92-2.19,4.5-1.83c2.48,0.56,23.9,4.49,26.86,3.8c4.23-0.98,16.2-8.07,18.49-10.28
	C353.81,282.85,351.05,279.24,348.07,280.88z M295.88,276.19l-1.37,17.85c-0.07,0.87-0.83,1.55-1.7,1.51l-12.44,0
	c-0.87-0.03-1.4-0.75-1.18-1.59l2.04-18.53c0.22-0.84,1.1-1.49,1.97-1.45l11.22,0.55C295.29,274.59,295.95,275.33,295.88,276.19z
	 M290.92,290c0-1.71-1.39-3.1-3.1-3.1c-1.71,0-3.1,1.39-3.1,3.1c0,1.71,1.39,3.1,3.1,3.1S290.92,291.72,290.92,290z"/>
</svg>
