<?xml version="1.0" encoding="utf-8"?>
<!-- Generator: Adobe Illustrator 24.0.2, SVG Export Plug-In . SVG Version: 6.00 Build 0)  -->
<svg version="1.1" id="Layer_1" xmlns="http://www.w3.org/2000/svg" xmlns:xlink="http://www.w3.org/1999/xlink" x="0px" y="0px"
	 viewBox="0 0 272.75 341.18" style="enable-background:new 0 0 272.75 341.18;" xml:space="preserve">
<style type="text/css">
	.st0{fill:#717171;}
</style>
<path class="st0" d="M56.46,80.65h85.33c4.42,0,8-3.59,8-8c0-4.42-3.58-8-8-8H56.46c-4.42,0-8,3.58-8,8
	C48.46,77.07,52.04,80.65,56.46,80.65L56.46,80.65z M56.46,80.65 M56.46,120.12h116.27c4.42,0,8-3.58,8-8s-3.58-8-8-8H56.46
	c-4.42,0-8,3.58-8,8S52.04,120.12,56.46,120.12L56.46,120.12z M56.46,120.12 M24,24h181.19v125.42c3.16,0.91,5.87,2.28,8.08,3.52
	c3.75-2.11,8.91-4.57,15.27-4.57c0.22,0,0.43,0.02,0.64,0.02V24c0-13.25-10.75-24-24-24H24C10.75,0,0,10.75,0,24v267.43
	c0,13.25,10.75,24,24,24h145.33v-24H24V24z M24,24 M266.13,208.79c-1.79-1.59-3.81-3.39-4.26-4.76c-0.49-1.5,0.08-4.12,0.63-6.66
	c0.86-3.98,1.82-8.5-0.64-11.88c-2.49-3.42-7.11-3.89-11.19-4.3c-2.44-0.25-5.21-0.53-6.45-1.43c-1.21-0.88-2.32-3.4-3.29-5.63
	c-1.66-3.78-3.54-8.06-7.61-9.38c-0.75-0.25-1.55-0.37-2.37-0.37c-3.12,0-6.11,1.73-9,3.41c-2.28,1.32-4.64,2.7-6.28,2.7
	c-1.64,0-4-1.37-6.28-2.7c-2.89-1.68-5.88-3.41-9-3.41c-0.82,0-1.62,0.12-2.37,0.37c-4.07,1.32-5.95,5.6-7.61,9.38
	c-0.98,2.23-2.08,4.75-3.29,5.63c-1.24,0.9-4.01,1.18-6.45,1.43c-4.07,0.41-8.7,0.88-11.18,4.3c-2.46,3.38-1.49,7.9-0.64,11.88
	c0.55,2.54,1.11,5.17,0.62,6.66c-0.44,1.37-2.47,3.17-4.25,4.76c-3.11,2.77-6.63,5.9-6.63,10.25c0,4.35,3.52,7.49,6.63,10.25
	c1.79,1.59,3.81,3.39,4.26,4.77c0.49,1.5-0.08,4.13-0.63,6.66c-0.85,3.98-1.83,8.5,0.64,11.88c2.48,3.42,7.11,3.89,11.18,4.3
	c2.45,0.25,5.22,0.53,6.45,1.43c1.21,0.88,2.32,3.4,3.29,5.63c1.66,3.78,3.54,8.06,7.61,9.38c0.75,0.25,1.55,0.37,2.37,0.37
	c3.11,0,6.11-1.73,9-3.41c2.28-1.32,4.64-2.7,6.28-2.7c1.64,0,4,1.37,6.28,2.7c2.89,1.68,5.88,3.41,9,3.41
	c0.82,0,1.62-0.13,2.37-0.37c4.07-1.32,5.95-5.61,7.6-9.38c0.98-2.23,2.09-4.75,3.3-5.63c1.24-0.9,4.01-1.18,6.45-1.43
	c4.08-0.42,8.7-0.88,11.19-4.3c2.46-3.38,1.49-7.9,0.64-11.88c-0.55-2.54-1.11-5.17-0.63-6.66c0.45-1.37,2.47-3.17,4.26-4.77
	c3.11-2.76,6.63-5.89,6.63-10.25C272.75,214.69,269.23,211.55,266.13,208.79L266.13,208.79z M215.68,239.81
	c-11.48,0-20.78-9.3-20.78-20.78c0-11.47,9.3-20.77,20.78-20.77c11.47,0,20.77,9.3,20.77,20.77
	C236.45,230.51,227.15,239.81,215.68,239.81L215.68,239.81z M215.68,239.81 M235.2,279.13c-1.36,0.44-2.79,0.66-4.25,0.66
	c-4.76,0-8.8-2.35-12.05-4.24c-0.92-0.54-2.36-1.37-3.22-1.75c-0.86,0.38-2.3,1.21-3.22,1.75c-3.25,1.89-7.3,4.24-12.06,4.24
	c-1.46,0-2.89-0.22-4.25-0.66c-4.01-1.3-6.58-4.04-8.42-6.98v65.75c0,1.3,0.77,2.48,1.97,3.01c1.2,0.52,2.59,0.29,3.55-0.59
	l22.43-20.63l22.43,20.63c0.62,0.57,1.42,0.87,2.23,0.87c0.44,0,0.89-0.09,1.32-0.28c1.19-0.52,1.97-1.71,1.97-3.01v-65.78
	C241.78,275.05,239.18,277.84,235.2,279.13L235.2,279.13z M235.2,279.13 M89.4,210.1H43.3v-9.2l8.3-7.5
	c7.73-6.93,13.2-12.38,16.4-16.35c3.2-3.97,4.83-7.75,4.9-11.35c0-2.8-0.88-5.08-2.65-6.85c-1.77-1.77-4.42-2.65-7.95-2.65
	c-4.47,0-9.1,1.77-13.9,5.3l-4.3-10.8c5.8-4.47,12.87-6.7,21.2-6.7c7.2,0,12.8,1.88,16.8,5.65c4,3.77,6,8.68,6,14.75
	c0,5-1.5,9.7-4.5,14.1c-3,4.4-7.27,9.03-12.8,13.9l-6,5v0.2h24.6V210.1z M140,210.1h-14.4v-15.5H96.8v-9.9l24.5-39.6H140v38.1h7.7
	v11.4H140V210.1z M110.9,183.2h14.7v-14.4c0-2.47,0.13-6.5,0.4-12.1h-0.3c-3.6,7.13-5.63,11.17-6.1,12.1L111,183L110.9,183.2z
	 M48.42,260.14l1.87-26.9h10.67l2.92,10.17c0.84,3.04,1.43,5.3,1.76,6.77h0.17c0.26-1.03,0.97-3.48,2.15-7.37l2.97-9.57h10.56
	l1.65,26.9h-7.75l-0.44-10.78c0-0.51-0.04-1.91-0.11-4.18c-0.07-2.27-0.13-4.02-0.17-5.23h-0.16c-1.61,5.5-2.48,8.43-2.59,8.8
	l-3.57,10.94h-6.1l-3.19-10.67c-0.33-1.25-1.06-4.22-2.2-8.91h-0.22c-0.04,0.81-0.08,2.37-0.14,4.67c-0.06,2.31-0.1,3.89-0.14,4.73
	l-0.44,10.62H48.42z M112.38,249.36H95.06c0.15,1.65,0.93,2.92,2.34,3.79c1.41,0.88,3.16,1.32,5.25,1.32c2.68,0,5.15-0.38,7.43-1.16
	l1.1,5.67c-2.71,1.14-5.96,1.71-9.73,1.71c-4.51,0-8.03-1.22-10.56-3.66c-2.53-2.44-3.79-5.78-3.79-10.04
	c0-3.78,1.18-7.11,3.55-10.01c2.37-2.9,5.71-4.34,10.04-4.34c4.03,0,7.04,1.3,9.02,3.9c1.98,2.6,2.97,5.78,2.97,9.52
	C112.66,247.24,112.57,248.34,112.38,249.36z M95,243.64h9.9c0-1.36-0.36-2.6-1.07-3.74c-0.71-1.14-1.92-1.71-3.6-1.71
	c-1.61,0-2.85,0.57-3.71,1.71C95.66,241.04,95.15,242.29,95,243.64z M136.86,253.27l0.99,6.16c-1.76,0.84-4.25,1.26-7.48,1.26
	c-4.36,0-7.83-1.24-10.4-3.71c-2.57-2.48-3.85-5.82-3.85-10.04c0-4.07,1.36-7.46,4.07-10.17c2.71-2.71,6.49-4.07,11.33-4.07
	c2.38,0,4.51,0.35,6.38,1.04l-1.32,6.21c-1.25-0.55-2.8-0.82-4.67-0.82c-2.16,0-3.91,0.7-5.25,2.09c-1.34,1.39-1.99,3.19-1.95,5.39
	c0,2.38,0.7,4.24,2.09,5.56c1.39,1.32,3.15,1.98,5.28,1.98C133.91,254.15,135.5,253.85,136.86,253.27z M146.76,260.75h-0.06
	c-1.39,0-2.55-0.48-3.46-1.43c-0.92-0.95-1.38-2.16-1.38-3.63c0-1.5,0.46-2.73,1.38-3.68c0.92-0.95,2.11-1.43,3.58-1.43
	c1.43,0,2.59,0.47,3.49,1.4c0.9,0.94,1.37,2.17,1.4,3.71c0,1.47-0.46,2.68-1.38,3.63C149.42,260.27,148.23,260.75,146.76,260.75z"/>
</svg>
