<svg width="24" height="24" viewBox="0 0 24 24" fill="none" xmlns="http://www.w3.org/2000/svg">
<path fill-rule="evenodd" clip-rule="evenodd" d="M23.248 8.25024C23.6623 8.25024 23.998 8.58603 23.998 9.00024V15.0002C23.998 15.4145 23.6623 15.7502 23.248 15.7502C22.8338 15.7502 22.498 15.4145 22.498 15.0002V9.00024C22.498 8.58603 22.8338 8.25024 23.248 8.25024Z" fill="#D2232A"/>
<path fill-rule="evenodd" clip-rule="evenodd" d="M19.5 6.74976C19.5 6.33554 19.1642 5.99976 18.75 5.99976L4.5 5.99976C4.08579 5.99976 3.75 6.33554 3.75 6.74976V17.2498C3.75 17.664 4.08579 17.9998 4.5 17.9998H18.75C19.1642 17.9998 19.5 17.664 19.5 17.2498V6.74976ZM18.75 4.49976C19.9926 4.49976 21 5.50712 21 6.74976V17.2498C21 18.4924 19.9926 19.4998 18.75 19.4998H4.5C3.25736 19.4998 2.25 18.4924 2.25 17.2498V6.74976C2.25 5.50712 3.25736 4.49976 4.5 4.49976L18.75 4.49976Z" fill="#D2232A"/>
<path fill-rule="evenodd" clip-rule="evenodd" d="M11.9035 7.55384C12.2881 7.70768 12.4752 8.14415 12.3214 8.52874L11.2328 11.2502H13.125C13.3739 11.2502 13.6065 11.3736 13.7461 11.5797C13.8856 11.7858 13.9138 12.0477 13.8214 12.2787L12.3214 16.0287C12.1675 16.4133 11.731 16.6004 11.3465 16.4466C10.9619 16.2927 10.7748 15.8562 10.9286 15.4717L12.0172 12.7502H10.125C9.87614 12.7502 9.64348 12.6268 9.50395 12.4207C9.36443 12.2146 9.33622 11.9527 9.42865 11.7217L10.9286 7.97166C11.0825 7.58707 11.519 7.40001 11.9035 7.55384Z" fill="#D2232A"/>
</svg>
