<svg width="84" height="84" viewBox="0 0 84 84" fill="none" xmlns="http://www.w3.org/2000/svg">
<path fill-rule="evenodd" clip-rule="evenodd" d="M81.375 28.875C82.8247 28.875 84 30.0503 84 31.5V52.5C84 53.9497 82.8247 55.125 81.375 55.125C79.9253 55.125 78.75 53.9497 78.75 52.5V31.5C78.75 30.0503 79.9253 28.875 81.375 28.875Z" fill="#D2232A"/>
<path fill-rule="evenodd" clip-rule="evenodd" d="M68.25 23.625C68.25 22.1753 67.0747 21 65.625 21L15.75 21C14.3003 21 13.125 22.1753 13.125 23.625V60.375C13.125 61.8247 14.3003 63 15.75 63H65.625C67.0747 63 68.25 61.8247 68.25 60.375V23.625ZM65.625 15.75C69.9742 15.75 73.5 19.2758 73.5 23.625V60.375C73.5 64.7242 69.9742 68.25 65.625 68.25H15.75C11.4008 68.25 7.875 64.7242 7.875 60.375V23.625C7.875 19.2758 11.4008 15.75 15.75 15.75L65.625 15.75Z" fill="#D2232A"/>
<path fill-rule="evenodd" clip-rule="evenodd" d="M46.7246 26.25C48.1744 26.25 49.3496 27.4253 49.3496 28.875V55.125C49.3496 56.5747 48.1744 57.75 46.7246 57.75C45.2749 57.75 44.0996 56.5747 44.0996 55.125V28.875C44.0996 27.4253 45.2749 26.25 46.7246 26.25Z" fill="#D2232A"/>
<path fill-rule="evenodd" clip-rule="evenodd" d="M34.6504 26.25C36.1001 26.25 37.2754 27.4253 37.2754 28.875V55.125C37.2754 56.5747 36.1001 57.75 34.6504 57.75C33.2006 57.75 32.0254 56.5747 32.0254 55.125V28.875C32.0254 27.4253 33.2006 26.25 34.6504 26.25Z" fill="#D2232A"/>
<path fill-rule="evenodd" clip-rule="evenodd" d="M22.5742 26.25C24.024 26.25 25.1992 27.4253 25.1992 28.875V55.125C25.1992 56.5747 24.024 57.75 22.5742 57.75C21.1245 57.75 19.9492 56.5747 19.9492 55.125V28.875C19.9492 27.4253 21.1245 26.25 22.5742 26.25Z" fill="#D2232A"/>
</svg>
