<svg width="44" height="44" viewBox="0 0 44 44" fill="none" xmlns="http://www.w3.org/2000/svg">
<circle cx="22" cy="22" r="21.25" fill="#D2232A" stroke="#D2232A" stroke-width="1.5"/>
<path d="M13.6969 32C13.2342 32 12.8357 31.8329 12.5014 31.4986C12.1671 31.1643 12 30.7658 12 30.3031V13.6969C12 13.2342 12.1671 12.8357 12.5014 12.5014C12.8357 12.1671 13.2342 12 13.6969 12H30.3031C30.7658 12 31.1643 12.1671 31.4986 12.5014C31.8329 12.8357 32 13.2342 32 13.6969V30.3031C32 30.7658 31.8329 31.1643 31.4986 31.4986C31.1643 31.8329 30.7658 32 30.3031 32H13.6969ZM27.9185 30.6652H30.3031C30.4087 30.6652 30.4955 30.6312 30.5633 30.5633C30.6312 30.4955 30.6652 30.4087 30.6652 30.3031V27.9185L27.9185 30.6652ZM14.1651 30.6652H17.0498L20.5792 27.1357H22.2602L18.7308 30.6652H21.6493L25.1787 27.1357H26.8597L23.3303 30.6652H26.2376L29.767 27.1357H30.6652V13.6969C30.6652 13.5913 30.6312 13.5045 30.5633 13.4367C30.4955 13.3688 30.4087 13.3348 30.3031 13.3348H13.6969C13.5913 13.3348 13.5045 13.3688 13.4367 13.4367C13.3688 13.5045 13.3348 13.5913 13.3348 13.6969V29.8145L16.0136 27.1357H17.6945L14.1651 30.6652ZM16.3507 24.0656L15.4208 23.1357L20.3394 18.2172L22.9072 20.7851L27.6606 16.0317L28.5792 16.9615L22.9072 22.6742L20.3394 20.1063L16.3507 24.0656ZM13.3348 30.3031V13.3348V30.6652V30.3031Z" fill="#E0E4EB"/>
</svg>
