<svg width="44" height="44" viewBox="0 0 44 44" fill="none" xmlns="http://www.w3.org/2000/svg">
<circle cx="22" cy="22" r="21.25" fill="#D2232A" stroke="#D2232A" stroke-width="1.5"/>
<path fill-rule="evenodd" clip-rule="evenodd" d="M9.625 21.1766C9.625 20.7209 9.99437 20.3516 10.45 20.3516H33.55C34.0056 20.3516 34.375 20.7209 34.375 21.1766C34.375 21.6322 34.0056 22.0016 33.55 22.0016H10.45C9.99437 22.0016 9.625 21.6322 9.625 21.1766Z" fill="#E0E4EB"/>
<path fill-rule="evenodd" clip-rule="evenodd" d="M27.7751 26.9512C28.2307 26.9512 28.6001 27.3205 28.6001 27.7762L28.6001 30.2512L31.0751 30.2512V27.7762C31.0751 27.3205 31.4444 26.9512 31.9001 26.9512C32.3557 26.9512 32.7251 27.3205 32.7251 27.7762V30.2512C32.7251 30.6888 32.5512 31.1085 32.2418 31.4179C31.9324 31.7273 31.5127 31.9012 31.0751 31.9012H28.6001C28.1625 31.9012 27.7428 31.7273 27.4333 31.4179C27.1239 31.1085 26.9501 30.6888 26.9501 30.2512V27.7762C26.9501 27.3205 27.3194 26.9512 27.7751 26.9512Z" fill="#E0E4EB"/>
<path fill-rule="evenodd" clip-rule="evenodd" d="M12.1 26.9512C12.5557 26.9512 12.925 27.3205 12.925 27.7762V30.2512H15.4V27.7762C15.4 27.3205 15.7694 26.9512 16.225 26.9512C16.6807 26.9512 17.05 27.3205 17.05 27.7762V30.2512C17.05 30.6888 16.8762 31.1085 16.5668 31.4179C16.2573 31.7273 15.8376 31.9012 15.4 31.9012H12.925C12.4874 31.9012 12.0677 31.7273 11.7583 31.4179C11.4489 31.1085 11.275 30.6888 11.275 30.2512V27.7762C11.275 27.3205 11.6444 26.9512 12.1 26.9512Z" fill="#E0E4EB"/>
<path fill-rule="evenodd" clip-rule="evenodd" d="M14.5751 24.4754C14.5751 24.0198 14.9444 23.6504 15.4001 23.6504H17.0501C17.5057 23.6504 17.8751 24.0198 17.8751 24.4754C17.8751 24.931 17.5057 25.3004 17.0501 25.3004H15.4001C14.9444 25.3004 14.5751 24.931 14.5751 24.4754Z" fill="#E0E4EB"/>
<path fill-rule="evenodd" clip-rule="evenodd" d="M26.125 24.4754C26.125 24.0198 26.4944 23.6504 26.95 23.6504H28.6C29.0556 23.6504 29.425 24.0198 29.425 24.4754C29.425 24.931 29.0556 25.3004 28.6 25.3004H26.95C26.4944 25.3004 26.125 24.931 26.125 24.4754Z" fill="#E0E4EB"/>
<path fill-rule="evenodd" clip-rule="evenodd" d="M15.9363 12.9258H28.0671C28.387 12.9271 28.6997 13.0213 28.967 13.1971C29.2334 13.3723 29.4433 13.6208 29.5714 13.9128C29.5718 13.9138 29.5723 13.9148 29.5727 13.9158L32.6538 20.8404C32.7008 20.946 32.725 21.0602 32.725 21.1758V27.7758C32.725 28.2314 32.3557 28.6008 31.9 28.6008H12.1C11.6444 28.6008 11.275 28.2314 11.275 27.7758V21.1758C11.275 21.0602 11.2993 20.946 11.3463 20.8404L14.4287 13.9126C14.5568 13.6208 14.7667 13.3722 15.0331 13.1971C15.3004 13.0213 15.613 12.9271 15.933 12.9258L15.9363 12.9258ZM15.9396 14.5758L15.9372 14.5812L12.925 21.351V26.9508H31.075V21.351L28.0604 14.5758L15.9396 14.5758Z" fill="#E0E4EB"/>
</svg>
