<svg width="44" height="44" viewBox="0 0 44 44" fill="none" xmlns="http://www.w3.org/2000/svg">
<circle cx="22" cy="22" r="21.25" fill="#D2232A" stroke="#D2232A" stroke-width="1.5"/>
<path fill-rule="evenodd" clip-rule="evenodd" d="M22 17.8766C19.7218 17.8766 17.875 19.7234 17.875 22.0016C17.875 24.2797 19.7218 26.1266 22 26.1266C24.2782 26.1266 26.125 24.2797 26.125 22.0016C26.125 19.7234 24.2782 17.8766 22 17.8766ZM16.225 22.0016C16.225 18.8121 18.8105 16.2266 22 16.2266C25.1894 16.2266 27.775 18.8121 27.775 22.0016C27.775 25.191 25.1894 27.7766 22 27.7766C18.8105 27.7766 16.225 25.191 16.225 22.0016Z" fill="#E0E4EB"/>
<path fill-rule="evenodd" clip-rule="evenodd" d="M18.4672 10.9969C18.6937 10.9238 18.9409 10.9521 19.1451 11.0746L21.5566 12.5215C21.8522 12.5083 22.1483 12.5083 22.4439 12.5216L24.8454 11.0844C25.0479 10.9633 25.2926 10.9346 25.5176 11.0057C27.0936 11.5036 28.5425 12.3381 29.7641 13.4513C29.9392 13.6109 30.0373 13.8381 30.0333 14.075L29.9861 16.8782C30.1489 17.1282 30.2984 17.3868 30.4338 17.6528L32.8784 19.0119C33.0842 19.1264 33.2313 19.3233 33.2826 19.5532C33.6423 21.1641 33.6461 22.8341 33.2938 24.4466C33.2431 24.6784 33.0951 24.8772 32.8875 24.9922L30.4334 26.3514C30.2981 26.6171 30.1488 26.8754 29.9861 27.1253L30.0333 29.9285C30.0373 30.1654 29.9392 30.3926 29.7641 30.5521C28.5451 31.663 27.1023 32.4999 25.5328 33.0065C25.3062 33.0797 25.0591 33.0513 24.8549 32.9288L22.4433 31.4819C22.1477 31.4951 21.8517 31.4951 21.5561 31.4819L19.1545 32.919C18.9521 33.0402 18.7074 33.0689 18.4824 32.9978C16.9064 32.4999 15.4574 31.6654 14.2358 30.5521C14.0607 30.3925 13.9626 30.1653 13.9666 29.9284L14.0139 27.1316C13.852 26.8789 13.7027 26.6184 13.5666 26.3509L11.1216 24.9915C10.9157 24.8771 10.7686 24.6801 10.7173 24.4502C10.3576 22.8394 10.3538 21.1694 10.7062 19.5569C10.7568 19.325 10.9049 19.1262 11.1124 19.0113L13.5665 17.6521C13.7018 17.3864 13.8511 17.128 14.0138 16.8782L13.9666 14.075C13.9627 13.8381 14.0607 13.6109 14.2359 13.4513C15.4549 12.3405 16.8977 11.5036 18.4672 10.9969ZM15.6228 14.4289L15.668 17.11C15.6709 17.2837 15.6189 17.4539 15.5194 17.5963C15.2982 17.9131 15.1044 18.2483 14.9404 18.5982C14.8666 18.7555 14.7451 18.8855 14.5931 18.9697L12.2466 20.2693C12.0413 21.4152 12.0441 22.5888 12.255 23.7338L14.5943 25.0344C14.7451 25.1183 14.8659 25.2473 14.9395 25.4034C15.1072 25.7587 15.3027 26.1001 15.5243 26.4245C15.6207 26.5655 15.6709 26.733 15.668 26.9038L15.6229 29.5744C16.5146 30.3277 17.5343 30.9149 18.6335 31.308L20.9266 29.9357C21.0719 29.8488 21.2403 29.8086 21.4091 29.8207C21.8025 29.8488 22.1974 29.8488 22.5908 29.8207C22.7599 29.8086 22.9287 29.8489 23.0741 29.9362L25.3747 31.3165C26.4702 30.9172 27.4867 30.3275 28.3771 29.5745L28.332 26.8934C28.329 26.7197 28.381 26.5495 28.4805 26.4071C28.7018 26.0903 28.8955 25.7551 29.0596 25.4052C29.1333 25.2479 29.2548 25.1179 29.4068 25.0338L31.7534 23.7341C31.9586 22.5882 31.9558 21.4146 31.745 20.2697L29.4056 18.969C29.2542 18.8848 29.1331 18.7551 29.0596 18.5982C28.8955 18.2483 28.7018 17.9131 28.4805 17.5963C28.381 17.4539 28.329 17.2837 28.332 17.11L28.3771 14.429C27.4854 13.6757 26.4656 13.0885 25.3665 12.6955L23.0733 14.0678C22.9281 14.1547 22.7596 14.1948 22.5908 14.1827C22.1974 14.1546 21.8025 14.1546 21.4091 14.1827C21.24 14.1948 21.0712 14.1545 20.9258 14.0673L18.6253 12.6869C17.5297 13.0862 16.5132 13.676 15.6228 14.4289Z" fill="#E0E4EB"/>
</svg>
