<svg width="44" height="44" viewBox="0 0 44 44" fill="none" xmlns="http://www.w3.org/2000/svg">
<circle cx="22" cy="22" r="21.25" fill="#D2232A" stroke="#D2232A" stroke-width="1.5"/>
<path fill-rule="evenodd" clip-rule="evenodd" d="M26.322 13.0138C25.573 12.8766 24.7998 12.8885 24.0477 13.0536C22.8732 13.3115 21.8087 13.9302 21.0033 14.8231C20.1979 15.716 19.6918 16.8385 19.5561 18.0333C19.4203 19.2281 19.6615 20.4354 20.246 21.4863C20.4361 21.8281 20.3601 22.2564 20.0641 22.5119L13.3862 28.2754C13.0879 28.5837 12.9208 28.9961 12.9208 29.4258C12.9208 29.8645 13.095 30.2853 13.4053 30.5955C13.7155 30.9058 14.1363 31.0801 14.575 31.0801C15.0047 31.0801 15.4171 30.9129 15.7254 30.6146L21.1487 24.331C21.3688 24.076 21.67 23.9046 22.0017 23.8458C22.3334 23.7869 22.6725 23.8505 22.9805 23.987C23.9149 24.4013 24.9458 24.5609 25.9675 24.4447C27.1623 24.309 28.2848 23.8029 29.1777 22.9975C30.0706 22.1921 30.6893 21.1276 30.9472 19.9531C31.1123 19.201 31.1242 18.4278 30.987 17.6788L27.6372 21.0366C27.4419 21.2324 27.1614 21.3173 26.8903 21.2626L23.9718 20.6748C23.6461 20.6092 23.3916 20.3547 23.326 20.029L22.7382 17.1105C22.6836 16.8394 22.7684 16.5589 22.9643 16.3636L26.322 13.0138ZM22.32 25.4991L16.9527 31.7179C16.9395 31.7332 16.9258 31.748 16.9115 31.7622C16.2919 32.3819 15.4514 32.7301 14.575 32.7301C13.6987 32.7301 12.8582 32.3819 12.2386 31.7622C11.6189 31.1426 11.2708 30.3021 11.2708 29.4258C11.2708 28.5494 11.6189 27.7089 12.2386 27.0893C12.2528 27.075 12.2676 27.0613 12.2829 27.0481L18.5017 21.6808C17.9716 20.4811 17.7676 19.1582 17.9166 17.8469C18.0913 16.3102 18.7421 14.8665 19.7781 13.718C20.814 12.5695 22.1832 11.7737 23.6939 11.442C25.2046 11.1104 26.7812 11.2594 28.203 11.8683C28.4548 11.9762 28.6367 12.202 28.6884 12.4711C28.74 12.7401 28.6548 13.0173 28.4608 13.2108L24.4431 17.2189L24.8352 19.1656L26.7819 19.5577L30.7901 15.54C30.9835 15.346 31.2607 15.2608 31.5297 15.3124C31.7988 15.3641 32.0246 15.546 32.1325 15.7978C32.7414 17.2196 32.8905 18.7962 32.5588 20.3069C32.2271 21.8176 31.4313 23.1868 30.2828 24.2227C29.1343 25.2587 27.6906 25.9095 26.1539 26.0842C24.8427 26.2332 23.5197 26.0292 22.32 25.4991Z" fill="#E0E4EB"/>
</svg>
